<svg xmlns="http://www.w3.org/2000/svg" xmlns:xlink="http://www.w3.org/1999/xlink" version="1.2" width="129.48mm" height="10.16mm" viewBox="0.0000 -0.0000 81.8650 6.4236">
<style text="style/css">
<![CDATA[
tspan { white-space: pre; }
]]>
</style>
<g color="rgb(49.8039%, 49.8039%, 49.8039%)">
<line transform="translate(0.0000, 5.0486)" stroke-linejoin="round" stroke-linecap="round" stroke-width="0.1073" stroke="currentColor" x1="0.0537" y1="-0.0000" x2="81.8650" y2="-0.0000"/>
<line transform="translate(0.0000, 4.0486)" stroke-linejoin="round" stroke-linecap="round" stroke-width="0.1073" stroke="currentColor" x1="0.0537" y1="-0.0000" x2="81.8650" y2="-0.0000"/>
<line transform="translate(0.0000, 3.0486)" stroke-linejoin="round" stroke-linecap="round" stroke-width="0.1073" stroke="currentColor" x1="0.0537" y1="-0.0000" x2="81.8650" y2="-0.0000"/>
<line transform="translate(0.0000, 2.0486)" stroke-linejoin="round" stroke-linecap="round" stroke-width="0.1073" stroke="currentColor" x1="0.0537" y1="-0.0000" x2="81.8650" y2="-0.0000"/>
<line transform="translate(0.0000, 1.0486)" stroke-linejoin="round" stroke-linecap="round" stroke-width="0.1073" stroke="currentColor" x1="0.0537" y1="-0.0000" x2="81.8650" y2="-0.0000"/>
</g>
<rect transform="translate(56.5934, 3.0486)" x="0.0000" y="-2.0537" width="0.2039" height="4.1073" ry="0.0000" fill="currentColor"/>
<rect transform="translate(57.9884, 3.0486)" x="-0.0697" y="-1.8206" width="0.1395" height="4.8206" ry="0.0444" fill="currentColor"/>
<path transform="translate(57.9186, 1.0486) scale(0.0040, -0.0040)" d="M215 137c57 0 111 -29 111 -92c0 -71 -54 -120 -101 -148c-35 -21 -74 -34 -114 -34c-57 0 -111 29 -111 92c0 71 54 120 101 148c35 21 74 34 114 34z" fill="currentColor"/>
<rect transform="translate(50.6631, 3.0486)" x="-0.0697" y="-0.8206" width="0.1395" height="2.4993" ry="0.0444" fill="currentColor"/>
<path transform="translate(50.5934, 2.0486) scale(0.0040, -0.0040)" d="M215 137c57 0 111 -29 111 -92c0 -71 -54 -120 -101 -148c-35 -21 -74 -34 -114 -34c-57 0 -111 29 -111 92c0 71 54 120 101 148c35 21 74 34 114 34z" fill="currentColor"/>
<rect transform="translate(44.6631, 3.0486)" x="-0.0697" y="-1.3206" width="0.1395" height="2.9993" ry="0.0444" fill="currentColor"/>
<path transform="translate(44.5934, 1.5486) scale(0.0040, -0.0040)" d="M215 137c57 0 111 -29 111 -92c0 -71 -54 -120 -101 -148c-35 -21 -74 -34 -114 -34c-57 0 -111 29 -111 92c0 71 54 120 101 148c35 21 74 34 114 34z" fill="currentColor"/>
<polygon transform="translate(8.5934, 6.0486)" stroke-linejoin="round" stroke-linecap="round" stroke-width="0.0889" fill="currentColor" stroke="currentColor" points="18.0950 -0.3306 18.0950 0.3306 0.0444 0.3306 0.0444 -0.3306"/>
<rect transform="translate(69.9884, 3.0486)" x="-0.0697" y="0.6794" width="0.1395" height="2.3206" ry="0.0444" fill="currentColor"/>
<polygon transform="translate(32.5934, 4.7273)" stroke-linejoin="round" stroke-linecap="round" stroke-width="0.0889" fill="currentColor" stroke="currentColor" points="18.0950 -0.3306 18.0950 0.3306 0.0444 0.3306 0.0444 -0.3306"/>
<polygon transform="translate(57.9186, 6.0486)" stroke-linejoin="round" stroke-linecap="round" stroke-width="0.0889" fill="currentColor" stroke="currentColor" points="18.0950 -0.3306 18.0950 0.3306 0.0444 0.3306 0.0444 -0.3306"/>
<rect transform="translate(75.9884, 3.0486)" x="-0.0697" y="-1.3206" width="0.1395" height="4.3206" ry="0.0444" fill="currentColor"/>
<path transform="translate(75.9186, 1.5486) scale(0.0040, -0.0040)" d="M215 137c57 0 111 -29 111 -92c0 -71 -54 -120 -101 -148c-35 -21 -74 -34 -114 -34c-57 0 -111 29 -111 92c0 71 54 120 101 148c35 21 74 34 114 34z" fill="currentColor"/>
<path transform="translate(69.9186, 3.5486) scale(0.0040, -0.0040)" d="M215 137c57 0 111 -29 111 -92c0 -71 -54 -120 -101 -148c-35 -21 -74 -34 -114 -34c-57 0 -111 29 -111 92c0 71 54 120 101 148c35 21 74 34 114 34z" fill="currentColor"/>
<rect transform="translate(63.9884, 3.0486)" x="-0.0697" y="-2.3206" width="0.1395" height="5.3206" ry="0.0444" fill="currentColor"/>
<path transform="translate(63.9186, 0.5486) scale(0.0040, -0.0040)" d="M215 137c57 0 111 -29 111 -92c0 -71 -54 -120 -101 -148c-35 -21 -74 -34 -114 -34c-57 0 -111 29 -111 92c0 71 54 120 101 148c35 21 74 34 114 34z" fill="currentColor"/>
<path transform="translate(20.5934, 2.0486) scale(0.0040, -0.0040)" d="M215 137c57 0 111 -29 111 -92c0 -71 -54 -120 -101 -148c-35 -21 -74 -34 -114 -34c-57 0 -111 29 -111 92c0 71 54 120 101 148c35 21 74 34 114 34z" fill="currentColor"/>
<rect transform="translate(14.6631, 3.0486)" x="-0.0697" y="0.6794" width="0.1395" height="2.3206" ry="0.0444" fill="currentColor"/>
<path transform="translate(14.5934, 3.5486) scale(0.0040, -0.0040)" d="M215 137c57 0 111 -29 111 -92c0 -71 -54 -120 -101 -148c-35 -21 -74 -34 -114 -34c-57 0 -111 29 -111 92c0 71 54 120 101 148c35 21 74 34 114 34z" fill="currentColor"/>
<rect transform="translate(8.6631, 3.0486)" x="-0.0697" y="-1.3206" width="0.1395" height="4.3206" ry="0.0444" fill="currentColor"/>
<path transform="translate(5.0000, 3.0486) scale(0.0040, -0.0040)" d="M203 301c22 15 45 30 61 51c12 15 19 34 27 51c2 4 5 6 9 6c6 0 14 -6 14 -15v-238h74c10 0 16 -8 16 -16s-6 -15 -16 -15h-74v-5c0 -49 29 -95 75 -95c8 0 12 -7 12 -13s-4 -12 -12 -12c-45 0 -90 13 -135 13s-90 -13 -135 -13c-8 0 -12 6 -12 12s4 13 12 13
c46 0 75 46 75 95v5h-163c-24 0 -33 15 -33 24c0 3 1 6 2 7c80 92 134 205 134 327c0 10 6 17 14 17h3c24 -7 48 -13 73 -13s48 6 72 13c2 1 4 1 6 1c9 0 14 -7 14 -13c0 -2 0 -3 -2 -5l-283 -327h163v122c0 9 2 18 9 23z" fill="currentColor"/>
<path transform="translate(5.0000, 5.0972) scale(0.0040, -0.0040)" d="M203 301c22 15 45 30 61 51c12 15 19 34 27 51c2 4 5 6 9 6c6 0 14 -6 14 -15v-238h74c10 0 16 -8 16 -16s-6 -15 -16 -15h-74v-5c0 -49 29 -95 75 -95c8 0 12 -7 12 -13s-4 -12 -12 -12c-45 0 -90 13 -135 13s-90 -13 -135 -13c-8 0 -12 6 -12 12s4 13 12 13
c46 0 75 46 75 95v5h-163c-24 0 -33 15 -33 24c0 3 1 6 2 7c80 92 134 205 134 327c0 10 6 17 14 17h3c24 -7 48 -13 73 -13s48 6 72 13c2 1 4 1 6 1c9 0 14 -7 14 -13c0 -2 0 -3 -2 -5l-283 -327h163v122c0 9 2 18 9 23z" fill="currentColor"/>
<path transform="translate(0.8000, 2.0486) scale(0.0040, -0.0040)" d="M558 -125c0 28 22 51 50 51s51 -23 51 -51s-23 -51 -51 -51s-50 23 -50 51zM558 125c0 28 22 51 50 51s51 -23 51 -51s-23 -51 -51 -51s-50 23 -50 51zM231 264c172 0 294 -88 294 -251c0 -263 -262 -416 -515 -523c-3 -3 -7 -4 -10 -4c-7 0 -14 7 -14 14c0 3 1 7 4 10
c201 118 410 265 410 492c0 119 -61 234 -169 234c-72 0 -124 -53 -148 -123c10 4 19 6 29 6c55 0 100 -45 100 -100c0 -58 -44 -106 -100 -106c-60 0 -112 47 -112 106c0 133 101 245 231 245z" fill="currentColor"/>
<path transform="translate(8.5934, 1.5486) scale(0.0040, -0.0040)" d="M215 137c57 0 111 -29 111 -92c0 -71 -54 -120 -101 -148c-35 -21 -74 -34 -114 -34c-57 0 -111 29 -111 92c0 71 54 120 101 148c35 21 74 34 114 34z" fill="currentColor"/>
<rect transform="translate(38.6631, 3.0486)" x="-0.0697" y="-2.3206" width="0.1395" height="3.9993" ry="0.0444" fill="currentColor"/>
<path transform="translate(38.5934, 0.5486) scale(0.0040, -0.0040)" d="M215 137c57 0 111 -29 111 -92c0 -71 -54 -120 -101 -148c-35 -21 -74 -34 -114 -34c-57 0 -111 29 -111 92c0 71 54 120 101 148c35 21 74 34 114 34z" fill="currentColor"/>
<rect transform="translate(32.6631, 3.0486)" x="-0.0697" y="-0.8206" width="0.1395" height="2.4993" ry="0.0444" fill="currentColor"/>
<path transform="translate(32.5934, 2.0486) scale(0.0040, -0.0040)" d="M215 137c57 0 111 -29 111 -92c0 -71 -54 -120 -101 -148c-35 -21 -74 -34 -114 -34c-57 0 -111 29 -111 92c0 71 54 120 101 148c35 21 74 34 114 34z" fill="currentColor"/>
<rect transform="translate(20.6631, 3.0486)" x="-0.0697" y="-0.8206" width="0.1395" height="3.8206" ry="0.0444" fill="currentColor"/>
<rect transform="translate(26.6631, 3.0486)" x="-0.0697" y="0.1794" width="0.1395" height="2.8206" ry="0.0444" fill="currentColor"/>
<path transform="translate(26.5934, 3.0486) scale(0.0040, -0.0040)" d="M215 137c57 0 111 -29 111 -92c0 -71 -54 -120 -101 -148c-35 -21 -74 -34 -114 -34c-57 0 -111 29 -111 92c0 71 54 120 101 148c35 21 74 34 114 34z" fill="currentColor"/>
</svg>
