<svg xmlns="http://www.w3.org/2000/svg" xmlns:xlink="http://www.w3.org/1999/xlink" version="1.2" width="210.00mm" height="297.00mm" viewBox="0 0 132.7795 187.7882">
<style text="style/css">
<![CDATA[
tspan { white-space: pre; }
]]>
</style>
<!-- Page: 1/1 -->
<g color="rgb(49.8039%, 49.8039%, 49.8039%)">
<line transform="translate(16.0600, 18.2563)" stroke-linejoin="round" stroke-linecap="round" stroke-width="0.1073" stroke="currentColor" x1="0.0537" y1="-0.0000" x2="77.7463" y2="-0.0000"/>
<line transform="translate(16.0600, 17.2563)" stroke-linejoin="round" stroke-linecap="round" stroke-width="0.1073" stroke="currentColor" x1="0.0537" y1="-0.0000" x2="77.7463" y2="-0.0000"/>
<line transform="translate(16.0600, 16.2563)" stroke-linejoin="round" stroke-linecap="round" stroke-width="0.1073" stroke="currentColor" x1="0.0537" y1="-0.0000" x2="77.7463" y2="-0.0000"/>
<line transform="translate(16.0600, 15.2563)" stroke-linejoin="round" stroke-linecap="round" stroke-width="0.1073" stroke="currentColor" x1="0.0537" y1="-0.0000" x2="77.7463" y2="-0.0000"/>
<line transform="translate(16.0600, 14.2563)" stroke-linejoin="round" stroke-linecap="round" stroke-width="0.1073" stroke="currentColor" x1="0.0537" y1="-0.0000" x2="77.7463" y2="-0.0000"/>
</g>
<rect transform="translate(16.0600, 13.2563)" x="53.4549" y="-0.1037" width="2.0709" height="0.2073" ry="0.1037" fill="currentColor"/>
<rect transform="translate(16.0600, 11.2563)" x="29.6250" y="-0.1037" width="1.9007" height="0.2073" ry="0.1037" fill="currentColor"/>
<rect transform="translate(16.0600, 12.2563)" x="29.4549" y="-0.1037" width="2.0709" height="0.2073" ry="0.1037" fill="currentColor"/>
<rect transform="translate(16.0600, 13.2563)" x="29.4549" y="-0.1037" width="2.0709" height="0.2073" ry="0.1037" fill="currentColor"/>
<rect transform="translate(16.0600, 13.2563)" x="5.6250" y="-0.1037" width="1.9007" height="0.2073" ry="0.1037" fill="currentColor"/>
<path transform="translate(69.8600, 12.7563) scale(0.0040, -0.0040)" d="M312 64c0 24 -20 41 -41 41c-4 0 -8 -1 -12 -2c-30 -9 -77 -38 -113 -62s-83 -54 -103 -78c-7 -8 -10 -17 -10 -27c0 -24 20 -41 41 -41c4 0 8 1 12 2c30 9 77 38 113 62s83 54 103 78c7 8 10 17 10 27zM259 137c48 0 86 -22 86 -74c0 -18 -4 -38 -10 -56
c-12 -38 -30 -73 -63 -95c-53 -36 -113 -49 -186 -49c-48 0 -86 22 -86 74c0 18 4 38 10 56c12 38 31 73 64 95c53 36 112 49 185 49z" fill="currentColor"/>
<path transform="translate(46.5503, 7.9763) scale(0.0040, -0.0040)" d="M-69 48c0 38 31 69 69 69s69 -31 69 -69s-31 -68 -69 -68s-69 30 -69 68zM0 364c158 0 333 -176 333 -367c0 -10 -10 -17 -20 -17c-9 0 -19 6 -21 20c-26 147 -145 261 -292 261s-266 -114 -292 -261c-2 -14 -12 -20 -21 -20c-10 0 -20 7 -20 17c0 191 176 367 333 367z
" fill="currentColor"/>
<path transform="translate(69.8600, 12.7563) scale(0.0040, -0.0040)" d="M312 64c0 24 -20 41 -41 41c-4 0 -8 -1 -12 -2c-30 -9 -77 -38 -113 -62s-83 -54 -103 -78c-7 -8 -10 -17 -10 -27c0 -24 20 -41 41 -41c4 0 8 1 12 2c30 9 77 38 113 62s83 54 103 78c7 8 10 17 10 27zM259 137c48 0 86 -22 86 -74c0 -18 -4 -38 -10 -56
c-12 -38 -30 -73 -63 -95c-53 -36 -113 -49 -186 -49c-48 0 -86 22 -86 74c0 18 4 38 10 56c12 38 31 73 64 95c53 36 112 49 185 49z" fill="currentColor"/>
<path transform="translate(44.8100, 10.7563) scale(0.0040, -0.0040)" d="M107 -313c0 -11 -8 -19 -19 -19s-20 8 -20 19v116l-34 -20c-4 -2 -8 -3 -12 -3c-12 0 -22 9 -22 22v57c0 8 4 16 11 20l57 33v153l-34 -20c-4 -2 -8 -3 -12 -3c-12 0 -22 10 -22 23v57c0 8 4 15 11 19l57 33v139c0 11 9 20 20 20s19 -9 19 -20v-116l34 20c4 2 8 3 12 3
c12 0 22 -9 22 -22v-57c0 -8 -4 -16 -11 -20l-57 -33v-153l34 20c4 2 8 3 12 3c12 0 22 -10 22 -23v-57c0 -8 -4 -15 -11 -19l-57 -33v-139z" fill="currentColor"/>
<rect transform="translate(47.1708, 16.2563)" x="-0.0697" y="-8.0000" width="0.1395" height="2.2470" ry="0.0444" fill="currentColor"/>
<rect transform="translate(45.9297, 16.2563)" x="-0.0697" y="-3.2470" width="0.1395" height="3.2470" ry="0.0444" fill="currentColor"/>
<text transform="translate(45.6398, 6.0203)" font-family="serif" font-size="2.4699" text-anchor="start" fill="currentColor">
<tspan>E</tspan>
</text>
<circle transform="translate(22.1563, 20.2345)" stroke-linejoin="round" stroke-linecap="round" fill="none" stroke="currentColor" stroke-width="0.1073" r="0.3500"/>
<line transform="translate(21.8600, 20.2345)" stroke-linejoin="round" stroke-linecap="round" stroke-width="0.1073" stroke="currentColor" x1="0.6999" y1="0.0000" x2="22.1728" y2="0.6666"/>
<line transform="translate(21.8600, 20.2345)" stroke-linejoin="round" stroke-linecap="round" stroke-width="0.1073" stroke="currentColor" x1="0.6999" y1="-0.0000" x2="22.1728" y2="-0.6666"/>
<text transform="translate(69.5450, 6.0203)" font-family="serif" font-size="2.4699" text-anchor="start" fill="currentColor">
<tspan>O</tspan>
</text>
<rect transform="translate(69.9297, 16.2563)" x="-0.0697" y="-3.2470" width="0.1395" height="3.2470" ry="0.0444" fill="currentColor"/>
<rect transform="translate(71.1708, 16.2563)" x="-0.0697" y="-6.0000" width="0.1395" height="2.2470" ry="0.0444" fill="currentColor"/>
<line transform="translate(16.0600, 16.2563)" stroke-linejoin="round" stroke-linecap="round" stroke-width="0.2146" stroke="currentColor" x1="31.6786" y1="-5.4560" x2="53.3019" y2="-3.5440"/>
<circle transform="translate(70.9443, 20.2345)" stroke-linejoin="round" stroke-linecap="round" fill="none" stroke="currentColor" stroke-width="0.1073" r="0.3500"/>
<line transform="translate(49.0678, 20.2345)" stroke-linejoin="round" stroke-linecap="round" stroke-width="0.1073" stroke="currentColor" x1="0.0000" y1="0.6666" x2="21.4729" y2="0.0000"/>
<line transform="translate(49.0678, 20.2345)" stroke-linejoin="round" stroke-linecap="round" stroke-width="0.1073" stroke="currentColor" x1="0.0000" y1="-0.6666" x2="21.4729" y2="-0.0000"/>
<line transform="translate(16.0600, 16.2563)" stroke-linejoin="round" stroke-linecap="round" stroke-width="0.2146" stroke="currentColor" x1="7.6784" y1="-3.5462" x2="28.2521" y2="-5.4538"/>
<path transform="translate(21.8600, 16.2563)" stroke-width="0.0858" stroke-linejoin="round" stroke-linecap="round" stroke="currentColor" fill="currentColor" d="M0.4395 0.0486C3.6081 1.9763 44.5314 1.9763 47.7000 0.0486L47.7000 0.0486C44.5314 1.8476 3.6081 1.8476 0.4395 0.0486z"/>
<rect transform="translate(23.1708, 16.2563)" x="-0.0697" y="-6.0000" width="0.1395" height="2.2470" ry="0.0444" fill="currentColor"/>
<path transform="translate(21.8600, 12.7563) scale(0.0040, -0.0040)" d="M312 64c0 24 -20 41 -41 41c-4 0 -8 -1 -12 -2c-30 -9 -77 -38 -113 -62s-83 -54 -103 -78c-7 -8 -10 -17 -10 -27c0 -24 20 -41 41 -41c4 0 8 1 12 2c30 9 77 38 113 62s83 54 103 78c7 8 10 17 10 27zM259 137c48 0 86 -22 86 -74c0 -18 -4 -38 -10 -56
c-12 -38 -30 -73 -63 -95c-53 -36 -113 -49 -186 -49c-48 0 -86 22 -86 74c0 18 4 38 10 56c12 38 31 73 64 95c53 36 112 49 185 49z" fill="currentColor"/>
<path transform="translate(21.8600, 12.7563) scale(0.0040, -0.0040)" d="M312 64c0 24 -20 41 -41 41c-4 0 -8 -1 -12 -2c-30 -9 -77 -38 -113 -62s-83 -54 -103 -78c-7 -8 -10 -17 -10 -27c0 -24 20 -41 41 -41c4 0 8 1 12 2c30 9 77 38 113 62s83 54 103 78c7 8 10 17 10 27zM259 137c48 0 86 -22 86 -74c0 -18 -4 -38 -10 -56
c-12 -38 -30 -73 -63 -95c-53 -36 -113 -49 -186 -49c-48 0 -86 22 -86 74c0 18 4 38 10 56c12 38 31 73 64 95c53 36 112 49 185 49z" fill="currentColor"/>
<path transform="translate(16.8600, 15.2563) scale(0.0040, -0.0040)" d="M558 -125c0 28 22 51 50 51s51 -23 51 -51s-23 -51 -51 -51s-50 23 -50 51zM558 125c0 28 22 51 50 51s51 -23 51 -51s-23 -51 -51 -51s-50 23 -50 51zM231 264c172 0 294 -88 294 -251c0 -263 -262 -416 -515 -523c-3 -3 -7 -4 -10 -4c-7 0 -14 7 -14 14c0 3 1 7 4 10
c201 118 410 265 410 492c0 119 -61 234 -169 234c-72 0 -124 -53 -148 -123c10 4 19 6 29 6c55 0 100 -45 100 -100c0 -58 -44 -106 -100 -106c-60 0 -112 47 -112 106c0 133 101 245 231 245z" fill="currentColor"/>
<text transform="translate(21.5450, 6.0203)" font-family="serif" font-size="2.4699" text-anchor="start" fill="currentColor">
<tspan>O</tspan>
</text>
<rect transform="translate(21.9297, 16.2563)" x="-0.0697" y="-3.2470" width="0.1395" height="3.2470" ry="0.0444" fill="currentColor"/>
<path transform="translate(45.8600, 10.7563) scale(0.0040, -0.0040)" d="M312 64c0 24 -20 41 -41 41c-4 0 -8 -1 -12 -2c-30 -9 -77 -38 -113 -62s-83 -54 -103 -78c-7 -8 -10 -17 -10 -27c0 -24 20 -41 41 -41c4 0 8 1 12 2c30 9 77 38 113 62s83 54 103 78c7 8 10 17 10 27zM259 137c48 0 86 -22 86 -74c0 -18 -4 -38 -10 -56
c-12 -38 -30 -73 -63 -95c-53 -36 -113 -49 -186 -49c-48 0 -86 22 -86 74c0 18 4 38 10 56c12 38 31 73 64 95c53 36 112 49 185 49z" fill="currentColor"/>
<g transform="translate(45.0328, 20.8345)" >
<path transform="scale(0.0040, -0.0040)" d="M-44 146c26 76 84 153 152 153c22 0 36 -19 41 -43c23 25 53 43 82 43c23 0 37 -19 43 -44c22 26 51 44 80 44c33 0 59 -35 59 -69c0 -5 -1 -10 -2 -15l-35 -149c0 -2 -1 -4 -1 -5c0 -5 2 -8 7 -8c9 0 27 11 48 31c5 5 10 6 14 6c6 0 12 -4 12 -10c0 -4 -2 -8 -7 -13
c-40 -38 -87 -74 -133 -74c-20 0 -32 13 -32 32c0 4 0 7 1 11l39 165c1 5 2 9 2 14c0 10 -4 18 -14 18c-16 0 -33 -16 -39 -32l-52 -182c-3 -10 -15 -19 -25 -19h-38c-11 0 -17 8 -14 19l52 182c2 6 3 11 3 16c0 9 -4 16 -13 16c-16 0 -35 -15 -41 -32l-62 -182
c-4 -11 -15 -19 -26 -19h-38c-11 0 -16 8 -12 19l62 182c2 5 2 10 2 15c0 10 -3 17 -13 17c-29 0 -54 -53 -66 -87c-4 -12 -15 -18 -24 -18c-7 0 -13 3 -13 11c0 2 0 5 1 7z" fill="currentColor"/>

<path transform="translate(1.7451, 0.0000) scale(0.0040, -0.0040)" d="M252 241l-49 -161c-30 -99 -121 -256 -218 -256c-46 0 -87 30 -87 73c0 39 17 77 52 77c24 0 44 -20 44 -44c0 -30 -38 -24 -38 -54c0 -10 11 -11 23 -11h6c47 0 61 56 73 105l68 271h-47c-11 0 -21 10 -21 21s10 21 21 21h58c32 95 119 189 213 189c46 0 87 -29 87 -72
c0 -39 -17 -78 -52 -78c-24 0 -44 20 -44 44c0 30 38 25 38 55c0 10 -10 10 -22 10h-7c-60 0 -70 -84 -86 -148h53c11 0 21 -10 21 -21s-10 -21 -21 -21h-65z" fill="currentColor"/>
</g>
<path transform="translate(45.8600, 12.7563) scale(0.0040, -0.0040)" d="M312 64c0 24 -20 41 -41 41c-4 0 -8 -1 -12 -2c-30 -9 -77 -38 -113 -62s-83 -54 -103 -78c-7 -8 -10 -17 -10 -27c0 -24 20 -41 41 -41c4 0 8 1 12 2c30 9 77 38 113 62s83 54 103 78c7 8 10 17 10 27zM259 137c48 0 86 -22 86 -74c0 -18 -4 -38 -10 -56
c-12 -38 -30 -73 -63 -95c-53 -36 -113 -49 -186 -49c-48 0 -86 22 -86 74c0 18 4 38 10 56c12 38 31 73 64 95c53 36 112 49 185 49z" fill="currentColor"/>
<path transform="translate(20.8100, 12.7563) scale(0.0040, -0.0040)" d="M107 -313c0 -11 -8 -19 -19 -19s-20 8 -20 19v116l-34 -20c-4 -2 -8 -3 -12 -3c-12 0 -22 9 -22 22v57c0 8 4 16 11 20l57 33v153l-34 -20c-4 -2 -8 -3 -12 -3c-12 0 -22 10 -22 23v57c0 8 4 15 11 19l57 33v139c0 11 9 20 20 20s19 -9 19 -20v-116l34 20c4 2 8 3 12 3
c12 0 22 -9 22 -22v-57c0 -8 -4 -16 -11 -20l-57 -33v-153l34 20c4 2 8 3 12 3c12 0 22 -10 22 -23v-57c0 -8 -4 -15 -11 -19l-57 -33v-139z" fill="currentColor"/>
<path transform="translate(20.8100, 12.7563) scale(0.0040, -0.0040)" d="M107 -313c0 -11 -8 -19 -19 -19s-20 8 -20 19v116l-34 -20c-4 -2 -8 -3 -12 -3c-12 0 -22 9 -22 22v57c0 8 4 16 11 20l57 33v153l-34 -20c-4 -2 -8 -3 -12 -3c-12 0 -22 10 -22 23v57c0 8 4 15 11 19l57 33v139c0 11 9 20 20 20s19 -9 19 -20v-116l34 20c4 2 8 3 12 3
c12 0 22 -9 22 -22v-57c0 -8 -4 -16 -11 -20l-57 -33v-153l34 20c4 2 8 3 12 3c12 0 22 -10 22 -23v-57c0 -8 -4 -15 -11 -19l-57 -33v-139z" fill="currentColor"/>
</svg>
