<svg xmlns="http://www.w3.org/2000/svg" xmlns:xlink="http://www.w3.org/1999/xlink" version="1.2" width="89.51mm" height="23.66mm" viewBox="0.0000 -0.0000 56.5934 14.9607">
<style text="style/css">
<![CDATA[
tspan { white-space: pre; }
]]>
</style>
<g color="rgb(49.8039%, 49.8039%, 49.8039%)">
<line transform="translate(0.0000, 7.2161)" stroke-linejoin="round" stroke-linecap="round" stroke-width="0.1073" stroke="currentColor" x1="0.0537" y1="-0.0000" x2="56.5397" y2="-0.0000"/>
<line transform="translate(0.0000, 6.2161)" stroke-linejoin="round" stroke-linecap="round" stroke-width="0.1073" stroke="currentColor" x1="0.0537" y1="-0.0000" x2="56.5397" y2="-0.0000"/>
<line transform="translate(0.0000, 5.2161)" stroke-linejoin="round" stroke-linecap="round" stroke-width="0.1073" stroke="currentColor" x1="0.0537" y1="-0.0000" x2="56.5397" y2="-0.0000"/>
<line transform="translate(0.0000, 4.2161)" stroke-linejoin="round" stroke-linecap="round" stroke-width="0.1073" stroke="currentColor" x1="0.0537" y1="-0.0000" x2="56.5397" y2="-0.0000"/>
<line transform="translate(0.0000, 3.2161)" stroke-linejoin="round" stroke-linecap="round" stroke-width="0.1073" stroke="currentColor" x1="0.0537" y1="-0.0000" x2="56.5397" y2="-0.0000"/>
</g>
<rect transform="translate(0.0000, 8.2161)" x="44.2677" y="-0.1037" width="1.9542" height="0.2073" ry="0.1037" fill="currentColor"/>
<rect transform="translate(0.0000, 9.2161)" x="44.2677" y="-0.1037" width="1.9542" height="0.2073" ry="0.1037" fill="currentColor"/>
<rect transform="translate(0.0000, 10.2161)" x="44.2677" y="-0.1037" width="1.9542" height="0.2073" ry="0.1037" fill="currentColor"/>
<rect transform="translate(0.0000, 8.2161)" x="20.2677" y="-0.1037" width="1.9542" height="0.2073" ry="0.1037" fill="currentColor"/>
<rect transform="translate(0.0000, 9.2161)" x="20.2677" y="-0.1037" width="1.9542" height="0.2073" ry="0.1037" fill="currentColor"/>
<rect transform="translate(0.0000, 10.2161)" x="20.2677" y="-0.1037" width="1.9542" height="0.2073" ry="0.1037" fill="currentColor"/>
<rect transform="translate(0.0000, 11.2161)" x="20.2677" y="-0.1037" width="1.9542" height="0.2073" ry="0.1037" fill="currentColor"/>
<rect transform="translate(0.0000, 12.2161)" x="20.2677" y="-0.1037" width="1.9542" height="0.2073" ry="0.1037" fill="currentColor"/>
<rect transform="translate(0.0000, 13.2161)" x="20.2677" y="-0.1037" width="1.9542" height="0.2073" ry="0.1037" fill="currentColor"/>
<rect transform="translate(0.0000, 8.2161)" x="8.2677" y="-0.1037" width="1.9542" height="0.2073" ry="0.1037" fill="currentColor"/>
<rect transform="translate(0.0000, 9.2161)" x="8.2677" y="-0.1037" width="1.9542" height="0.2073" ry="0.1037" fill="currentColor"/>
<rect transform="translate(56.3895, 5.2161)" x="0.0000" y="-2.0537" width="0.2039" height="4.1073" ry="0.0000" fill="currentColor"/>
<rect transform="translate(45.8264, 5.2161)" x="-0.0697" y="-0.0000" width="0.1395" height="5.0000" ry="0.0444" fill="currentColor"/>
<path transform="translate(45.2448, 11.0620) scale(0.0040, -0.0040)" d="M-50 0c0 28 22 50 50 50s50 -22 50 -50s-22 -50 -50 -50s-50 22 -50 50z" fill="currentColor"/>
<text transform="translate(44.5934, 1.7451)" font-family="serif" font-weight="bold" font-size="2.2000" text-anchor="start" fill="currentColor">
<tspan>ʄ</tspan>
</text>
<path transform="translate(44.5934, 10.2161) scale(0.0040, -0.0040)" d="M18 111h290c10 0 18 -7 18 -17v-188c0 -10 -8 -17 -18 -17h-290c-10 0 -18 7 -18 17v188c0 10 8 17 18 17z" fill="currentColor"/>
<path transform="translate(32.5934, 5.2161) scale(0.0040, -0.0040)" d="M-24 -117c0 29 13 42 43 42c31 0 74 -11 113 -27l-129 154c-7 9 -11 18 -11 26c0 34 51 66 88 100c24 22 37 52 37 82c0 25 -9 49 -26 69l-33 40c-3 4 -4 7 -4 11c0 9 9 17 18 17c4 0 8 -2 12 -6l150 -179c7 -9 11 -18 11 -26c0 -34 -51 -65 -88 -99
c-24 -22 -37 -53 -37 -83c0 -25 8 -49 25 -69l82 -97c3 -4 4 -7 4 -11c0 -9 -8 -17 -17 -17c-4 0 -9 2 -13 6c-17 20 -60 36 -93 36c-41 0 -54 -25 -54 -66c0 -34 10 -73 27 -93c5 -6 0 -14 -6 -14c-2 0 -4 1 -6 3c-45 53 -93 147 -93 201z" fill="currentColor"/>
<path transform="translate(8.5934, 9.7161) scale(0.0040, -0.0040)" d="M18 111h290c10 0 18 -7 18 -17v-188c0 -10 -8 -17 -18 -17h-290c-10 0 -18 7 -18 17v188c0 10 8 17 18 17z" fill="currentColor"/>
<text transform="translate(8.5934, 2.1624)" font-family="serif" font-weight="bold" font-size="2.2000" text-anchor="start" fill="currentColor">
<tspan>f</tspan>
</text>
<path transform="translate(9.2448, 10.8580) scale(0.0040, -0.0040)" d="M-210 86c-9 2 -15 10 -15 19c0 11 9 20 20 20c2 0 3 -1 5 -1l405 -104c14 0 20 -6 20 -20s-6 -20 -20 -20l-405 -104c-2 0 -3 -1 -5 -1c-11 0 -20 9 -20 20c0 9 6 17 15 19l248 64l140 22l-140 22z" fill="currentColor"/>
<path transform="translate(0.8000, 6.2161) scale(0.0040, -0.0040)" d="M378 263c4 0 7 1 11 1c156 0 257 -129 257 -262c0 -76 -34 -154 -108 -210c-22 -17 -46 -29 -72 -37c3 -34 4 -68 4 -102c0 -20 0 -40 -1 -60c-7 -121 -90 -228 -209 -228c-108 0 -196 87 -196 196c0 58 53 104 112 104c54 0 95 -48 95 -104c0 -52 -43 -95 -95 -95
c-10 0 -20 2 -29 6c26 -38 68 -63 116 -63c95 0 156 91 162 190c1 19 2 37 2 56c0 30 -2 60 -4 90c-29 -5 -58 -8 -88 -8c-188 0 -333 173 -333 375c0 177 130 307 246 442c-20 62 -38 125 -46 190c-6 52 -7 104 -7 157c0 115 55 223 148 290c3 2 7 3 11 3s8 -1 11 -4
c71 -83 134 -244 134 -357c0 -143 -85 -255 -178 -364c21 -68 40 -137 57 -206zM462 -202c67 24 111 94 111 162c0 89 -65 178 -170 190c24 -115 46 -230 59 -352zM75 26c0 -134 129 -245 263 -245c28 0 55 2 81 6c-14 126 -36 244 -61 363c-79 -8 -124 -61 -124 -119
c0 -43 25 -89 80 -121c5 -5 7 -11 7 -16c0 -12 -10 -23 -22 -23c-3 0 -6 1 -9 2c-81 43 -118 116 -118 186c0 89 58 175 161 198c-14 58 -29 116 -46 173c-106 -122 -212 -244 -212 -404zM406 1042c-99 -47 -162 -148 -162 -257c0 -73 20 -132 38 -191
c79 97 144 199 144 324c0 53 -4 76 -20 124z" fill="currentColor"/>
<path transform="translate(5.0000, 5.2161) scale(0.0040, -0.0040)" d="M203 301c22 15 45 30 61 51c12 15 19 34 27 51c2 4 5 6 9 6c6 0 14 -6 14 -15v-238h74c10 0 16 -8 16 -16s-6 -15 -16 -15h-74v-5c0 -49 29 -95 75 -95c8 0 12 -7 12 -13s-4 -12 -12 -12c-45 0 -90 13 -135 13s-90 -13 -135 -13c-8 0 -12 6 -12 12s4 13 12 13
c46 0 75 46 75 95v5h-163c-24 0 -33 15 -33 24c0 3 1 6 2 7c80 92 134 205 134 327c0 10 6 17 14 17h3c24 -7 48 -13 73 -13s48 6 72 13c2 1 4 1 6 1c9 0 14 -7 14 -13c0 -2 0 -3 -2 -5l-283 -327h163v122c0 9 2 18 9 23z" fill="currentColor"/>
<path transform="translate(5.0000, 7.2647) scale(0.0040, -0.0040)" d="M203 301c22 15 45 30 61 51c12 15 19 34 27 51c2 4 5 6 9 6c6 0 14 -6 14 -15v-238h74c10 0 16 -8 16 -16s-6 -15 -16 -15h-74v-5c0 -49 29 -95 75 -95c8 0 12 -7 12 -13s-4 -12 -12 -12c-45 0 -90 13 -135 13s-90 -13 -135 -13c-8 0 -12 6 -12 12s4 13 12 13
c46 0 75 46 75 95v5h-163c-24 0 -33 15 -33 24c0 3 1 6 2 7c80 92 134 205 134 327c0 10 6 17 14 17h3c24 -7 48 -13 73 -13s48 6 72 13c2 1 4 1 6 1c9 0 14 -7 14 -13c0 -2 0 -3 -2 -5l-283 -327h163v122c0 9 2 18 9 23z" fill="currentColor"/>
<rect transform="translate(9.8264, 5.2161)" x="-0.0697" y="-0.0000" width="0.1395" height="4.5000" ry="0.0444" fill="currentColor"/>
<rect transform="translate(21.8264, 5.2161)" x="-0.0697" y="-0.0000" width="0.1395" height="7.5923" ry="0.0444" fill="currentColor"/>
<path transform="translate(21.2448, 14.4607) scale(0.0040, -0.0040)" d="M-210 86c-9 2 -15 10 -15 19c0 11 9 20 20 20c2 0 3 -1 5 -1l405 -104c14 0 20 -6 20 -20s-6 -20 -20 -20l-405 -104c-2 0 -3 -1 -5 -1c-11 0 -20 9 -20 20c0 9 6 17 15 19l248 64l140 22l-140 22z" fill="currentColor"/>
<text transform="translate(20.5934, 1.6692)" font-family="serif" font-weight="bold" font-size="2.2000" text-anchor="start" fill="currentColor">
<tspan>tongue slap</tspan>
</text>
<path transform="translate(20.5934, 13.2161) scale(0.0040, -0.0040)" d="M163 39l115 94c3 2 6 4 10 4s8 -2 11 -4l21 -17c4 -3 6 -8 6 -13s-2 -9 -6 -12l-110 -91l110 -91c4 -3 6 -7 6 -12s-2 -10 -6 -13l-21 -17c-3 -2 -7 -4 -11 -4s-7 2 -10 4l-115 94l-115 -94c-3 -2 -7 -4 -11 -4s-7 2 -10 4l-21 17c-4 3 -6 8 -6 13s2 9 6 12l110 91
l-110 91c-4 3 -6 7 -6 12s2 10 6 13l21 17c3 2 6 4 10 4s8 -2 11 -4z" fill="currentColor"/>
</svg>
