<svg xmlns="http://www.w3.org/2000/svg" xmlns:xlink="http://www.w3.org/1999/xlink" version="1.2" width="210.00mm" height="297.00mm" viewBox="0 0 132.7795 187.7882">
<style text="style/css">
<![CDATA[
tspan { white-space: pre; }
]]>
</style>
<!-- Page: 1/1 -->
<g color="rgb(49.8039%, 49.8039%, 49.8039%)">
<line transform="translate(16.0600, 23.3296)" stroke-linejoin="round" stroke-linecap="round" stroke-width="0.1073" stroke="currentColor" x1="0.0537" y1="-0.0000" x2="60.8502" y2="-0.0000"/>
<line transform="translate(16.0600, 22.3296)" stroke-linejoin="round" stroke-linecap="round" stroke-width="0.1073" stroke="currentColor" x1="0.0537" y1="-0.0000" x2="60.8502" y2="-0.0000"/>
<line transform="translate(16.0600, 21.3296)" stroke-linejoin="round" stroke-linecap="round" stroke-width="0.1073" stroke="currentColor" x1="0.0537" y1="-0.0000" x2="60.8502" y2="-0.0000"/>
<line transform="translate(16.0600, 20.3296)" stroke-linejoin="round" stroke-linecap="round" stroke-width="0.1073" stroke="currentColor" x1="0.0537" y1="-0.0000" x2="60.8502" y2="-0.0000"/>
<line transform="translate(16.0600, 19.3296)" stroke-linejoin="round" stroke-linecap="round" stroke-width="0.1073" stroke="currentColor" x1="0.0537" y1="-0.0000" x2="60.8502" y2="-0.0000"/>
</g>
<rect transform="translate(69.8600, 21.3296)" x="0.0000" y="-2.0537" width="0.2039" height="4.1073" ry="0.0000" fill="currentColor"/>
<path transform="translate(51.8600, 20.8296) scale(0.0040, -0.0040)" d="M215 137c57 0 111 -29 111 -92c0 -71 -54 -120 -101 -148c-35 -21 -74 -34 -114 -34c-57 0 -111 29 -111 92c0 71 54 120 101 148c35 21 74 34 114 34z" fill="currentColor"/>
<g color="rgb(0.0000%, 0.0000%, 100.0000%)">
<text transform="translate(51.8600, 28.4789)" font-family="serif" font-size="1.7462" text-anchor="start" fill="currentColor">
<tspan>0-4</tspan>
</text>
</g>
<path transform="translate(51.8600, 20.8296) scale(0.0040, -0.0040)" d="M215 137c57 0 111 -29 111 -92c0 -71 -54 -120 -101 -148c-35 -21 -74 -34 -114 -34c-57 0 -111 29 -111 92c0 71 54 120 101 148c35 21 74 34 114 34z" fill="currentColor"/>
<g color="rgb(0.0000%, 0.0000%, 50.0000%)">
<text transform="translate(51.8600, 15.8056)" font-family="serif" font-size="1.7462" text-anchor="start" fill="currentColor">
<tspan>1-4</tspan>
</text>
</g>
<rect transform="translate(51.9297, 21.3296)" x="-0.0697" y="-0.3206" width="0.1395" height="3.3206" ry="0.0444" fill="currentColor"/>
<rect transform="translate(53.0931, 21.3296)" x="-0.0697" y="-3.6667" width="0.1395" height="2.9873" ry="0.0444" fill="currentColor"/>
<path transform="translate(50.8140, 20.8296) scale(0.0040, -0.0040)" d="M-8 375c8 5 17 7 26 7s18 -2 26 -7l-3 -187l104 21h4c10 0 18 -8 18 -18l7 -566c-8 -5 -16 -7 -25 -7s-18 2 -26 7l2 187l-103 -21h-4c-10 0 -18 8 -18 18zM130 111l-90 -18l-3 -204l90 18z" fill="currentColor"/>
<path transform="translate(38.7468, 20.8296) scale(0.0040, -0.0040)" d="M139 39c-1 33 -21 64 -52 64c-29 0 -42 -33 -42 -66c0 -58 47 -100 91 -138c3 22 4 43 4 65v11zM183 -139c0 -14 -10 -27 -24 -27c-22 0 -31 27 -47 41c-60 52 -144 90 -144 169c0 54 35 103 86 103c34 0 68 -13 93 -36l-8 343c9 5 19 8 29 8s19 -3 28 -8z" fill="currentColor"/>
<path transform="translate(47.1628, 17.6240) scale(0.0040, -0.0040)" d="M0 0c0 -197 207 -335 207 -532c0 -71 -15 -141 -41 -207c-5 -8 -13 -12 -21 -12c-14 0 -27 11 -24 28c26 60 42 125 42 191c0 103 -93 207 -163 282h-18v250h18z" fill="currentColor"/>
<rect transform="translate(47.0931, 21.3296)" x="-0.0697" y="-3.7500" width="0.1395" height="3.0706" ry="0.0444" fill="currentColor"/>
<path transform="translate(45.9995, 24.2851) scale(0.0040, -0.0040)" d="M0 0h-18v250h18c96 59 222 149 222 259c0 57 -15 111 -40 162c-3 17 10 29 24 29c8 0 16 -5 21 -13c25 -56 40 -116 40 -178c0 -203 -267 -306 -267 -509z" fill="currentColor"/>
<rect transform="translate(45.9297, 21.3296)" x="-0.0697" y="-0.3206" width="0.1395" height="3.3206" ry="0.0444" fill="currentColor"/>
<g color="rgb(0.0000%, 0.0000%, 50.0000%)">
<text transform="translate(45.8600, 15.7125)" font-family="serif" font-size="1.7462" text-anchor="start" fill="currentColor">
<tspan>1-3</tspan>
</text>
</g>
<path transform="translate(45.8600, 20.8296) scale(0.0040, -0.0040)" d="M215 137c57 0 111 -29 111 -92c0 -71 -54 -120 -101 -148c-35 -21 -74 -34 -114 -34c-57 0 -111 29 -111 92c0 71 54 120 101 148c35 21 74 34 114 34z" fill="currentColor"/>
<g color="rgb(0.0000%, 0.0000%, 100.0000%)">
<text transform="translate(45.8600, 28.4394)" font-family="serif" font-size="1.7462" text-anchor="start" fill="currentColor">
<tspan>0-3</tspan>
</text>
</g>
<path transform="translate(45.8600, 20.8296) scale(0.0040, -0.0040)" d="M215 137c57 0 111 -29 111 -92c0 -71 -54 -120 -101 -148c-35 -21 -74 -34 -114 -34c-57 0 -111 29 -111 92c0 71 54 120 101 148c35 21 74 34 114 34z" fill="currentColor"/>
<path transform="translate(21.8063, 25.8769)" stroke-width="0.1073" stroke-linejoin="round" stroke-linecap="round" stroke="currentColor" fill="none" d="M0 0L40.2412 -0.2666L40.4912 -0.6666"/>
<path transform="translate(21.8063, 25.8769)" stroke-width="0.1073" stroke-linejoin="round" stroke-linecap="round" stroke="currentColor" fill="none" d="M0 0L40.2412 0.2666L40.4912 0.6666"/>
<path transform="translate(21.8600, 21.3296)" stroke-width="0.0858" stroke-linejoin="round" stroke-linecap="round" stroke="currentColor" fill="currentColor" d="M2.3616 -3.1986C5.4240 -5.1037 39.8009 -5.1037 42.8633 -3.1986L42.8633 -3.1986C39.8009 -4.9750 5.4240 -4.9750 2.3616 -3.1986z"/>
<path transform="translate(62.7468, 21.3296) scale(0.0040, -0.0040)" d="M139 39c-1 33 -21 64 -52 64c-29 0 -42 -33 -42 -66c0 -58 47 -100 91 -138c3 22 4 43 4 65v11zM183 -139c0 -14 -10 -27 -24 -27c-22 0 -31 27 -47 41c-60 52 -144 90 -144 169c0 54 35 103 86 103c34 0 68 -13 93 -36l-8 343c9 5 19 8 29 8s19 -3 28 -8z" fill="currentColor"/>
<path transform="translate(62.7468, 21.3296) scale(0.0040, -0.0040)" d="M139 39c-1 33 -21 64 -52 64c-29 0 -42 -33 -42 -66c0 -58 47 -100 91 -138c3 22 4 43 4 65v11zM183 -139c0 -14 -10 -27 -24 -27c-22 0 -31 27 -47 41c-60 52 -144 90 -144 169c0 54 35 103 86 103c34 0 68 -13 93 -36l-8 343c9 5 19 8 29 8s19 -3 28 -8z" fill="currentColor"/>
<path transform="translate(50.8140, 20.8296) scale(0.0040, -0.0040)" d="M-8 375c8 5 17 7 26 7s18 -2 26 -7l-3 -187l104 21h4c10 0 18 -8 18 -18l7 -566c-8 -5 -16 -7 -25 -7s-18 2 -26 7l2 187l-103 -21h-4c-10 0 -18 8 -18 18zM130 111l-90 -18l-3 -204l90 18z" fill="currentColor"/>
<rect transform="translate(65.0931, 21.3296)" x="-0.0697" y="-3.3333" width="0.1395" height="3.1540" ry="0.0444" fill="currentColor"/>
<rect transform="translate(63.9297, 21.3296)" x="-0.0697" y="0.1794" width="0.1395" height="3.1540" ry="0.0444" fill="currentColor"/>
<path transform="translate(64.5114, 14.1882) scale(0.0040, -0.0040)" d="M-69 48c0 38 31 69 69 69s69 -31 69 -69s-31 -68 -69 -68s-69 30 -69 68zM0 364c158 0 333 -176 333 -367c0 -10 -10 -17 -20 -17c-9 0 -19 6 -21 20c-26 147 -145 261 -292 261s-266 -114 -292 -261c-2 -14 -12 -20 -21 -20c-10 0 -20 7 -20 17c0 191 176 367 333 367z
" fill="currentColor"/>
<g color="rgb(0.0000%, 0.0000%, 50.0000%)">
<text transform="translate(63.8600, 16.5960)" font-family="serif" font-size="1.7462" text-anchor="start" fill="currentColor">
<tspan>1-5</tspan>
</text>
</g>
<path transform="translate(63.8600, 21.3296) scale(0.0040, -0.0040)" d="M215 137c57 0 111 -29 111 -92c0 -71 -54 -120 -101 -148c-35 -21 -74 -34 -114 -34c-57 0 -111 29 -111 92c0 71 54 120 101 148c35 21 74 34 114 34z" fill="currentColor"/>
<g transform="translate(62.9939, 26.4769)" >
<path transform="scale(0.0040, -0.0040)" d="M-44 146c26 76 84 153 152 153c22 0 36 -19 41 -43c23 25 53 43 82 43c23 0 37 -19 43 -44c22 26 51 44 80 44c33 0 59 -35 59 -69c0 -5 -1 -10 -2 -15l-35 -149c0 -2 -1 -4 -1 -5c0 -5 2 -8 7 -8c9 0 27 11 48 31c5 5 10 6 14 6c6 0 12 -4 12 -10c0 -4 -2 -8 -7 -13
c-40 -38 -87 -74 -133 -74c-20 0 -32 13 -32 32c0 4 0 7 1 11l39 165c1 5 2 9 2 14c0 10 -4 18 -14 18c-16 0 -33 -16 -39 -32l-52 -182c-3 -10 -15 -19 -25 -19h-38c-11 0 -17 8 -14 19l52 182c2 6 3 11 3 16c0 9 -4 16 -13 16c-16 0 -35 -15 -41 -32l-62 -182
c-4 -11 -15 -19 -26 -19h-38c-11 0 -16 8 -12 19l62 182c2 5 2 10 2 15c0 10 -3 17 -13 17c-29 0 -54 -53 -66 -87c-4 -12 -15 -18 -24 -18c-7 0 -13 3 -13 11c0 2 0 5 1 7z" fill="currentColor"/>

<path transform="translate(1.7451, 0.0000) scale(0.0040, -0.0040)" d="M252 241l-49 -161c-30 -99 -121 -256 -218 -256c-46 0 -87 30 -87 73c0 39 17 77 52 77c24 0 44 -20 44 -44c0 -30 -38 -24 -38 -54c0 -10 11 -11 23 -11h6c47 0 61 56 73 105l68 271h-47c-11 0 -21 10 -21 21s10 21 21 21h58c32 95 119 189 213 189c46 0 87 -29 87 -72
c0 -39 -17 -78 -52 -78c-24 0 -44 20 -44 44c0 30 38 25 38 55c0 10 -10 10 -22 10h-7c-60 0 -70 -84 -86 -148h53c11 0 21 -10 21 -21s-10 -21 -21 -21h-65z" fill="currentColor"/>
</g>
<g color="rgb(0.0000%, 0.0000%, 100.0000%)">
<text transform="translate(63.8600, 29.5255)" font-family="serif" font-size="1.7462" text-anchor="start" fill="currentColor">
<tspan>0-5</tspan>
</text>
</g>
<path transform="translate(63.8600, 21.3296) scale(0.0040, -0.0040)" d="M215 137c57 0 111 -29 111 -92c0 -71 -54 -120 -101 -148c-35 -21 -74 -34 -114 -34c-57 0 -111 29 -111 92c0 71 54 120 101 148c35 21 74 34 114 34z" fill="currentColor"/>
<path transform="translate(21.9995, 24.6601) scale(0.0040, -0.0040)" d="M0 0h-18v250h18c96 59 222 149 222 259c0 57 -15 111 -40 162c-3 17 10 29 24 29c8 0 16 -5 21 -13c25 -56 40 -116 40 -178c0 -203 -267 -306 -267 -509z" fill="currentColor"/>
<rect transform="translate(23.0931, 21.3296)" x="-0.0697" y="-3.3750" width="0.1395" height="3.1956" ry="0.0444" fill="currentColor"/>
<path transform="translate(23.1628, 17.9990) scale(0.0040, -0.0040)" d="M0 0c0 -197 207 -335 207 -532c0 -71 -15 -141 -41 -207c-5 -8 -13 -12 -21 -12c-14 0 -27 11 -24 28c26 60 42 125 42 191c0 103 -93 207 -163 282h-18v250h18z" fill="currentColor"/>
<path transform="translate(38.7468, 20.8296) scale(0.0040, -0.0040)" d="M139 39c-1 33 -21 64 -52 64c-29 0 -42 -33 -42 -66c0 -58 47 -100 91 -138c3 22 4 43 4 65v11zM183 -139c0 -14 -10 -27 -24 -27c-22 0 -31 27 -47 41c-60 52 -144 90 -144 169c0 54 35 103 86 103c34 0 68 -13 93 -36l-8 343c9 5 19 8 29 8s19 -3 28 -8z" fill="currentColor"/>
<rect transform="translate(21.9297, 21.3296)" x="-0.0697" y="0.1794" width="0.1395" height="3.1956" ry="0.0444" fill="currentColor"/>
<path transform="translate(16.8600, 20.3296) scale(0.0040, -0.0040)" d="M558 -125c0 28 22 51 50 51s51 -23 51 -51s-23 -51 -51 -51s-50 23 -50 51zM558 125c0 28 22 51 50 51s51 -23 51 -51s-23 -51 -51 -51s-50 23 -50 51zM231 264c172 0 294 -88 294 -251c0 -263 -262 -416 -515 -523c-3 -3 -7 -4 -10 -4c-7 0 -14 7 -14 14c0 3 1 7 4 10
c201 118 410 265 410 492c0 119 -61 234 -169 234c-72 0 -124 -53 -148 -123c10 4 19 6 29 6c55 0 100 -45 100 -100c0 -58 -44 -106 -100 -106c-60 0 -112 47 -112 106c0 133 101 245 231 245z" fill="currentColor"/>
<g color="rgb(0.0000%, 0.0000%, 50.0000%)">
<rect transform="translate(21.8600, 6.8626)" x="-0.3073" y="-0.1073" width="16.0170" height="0.1073" ry="0.0000" fill="currentColor"/>
<rect transform="translate(21.8600, 4.2687)" x="-0.3073" y="-0.1073" width="16.0170" height="0.1073" ry="0.0000" fill="currentColor"/>
<rect transform="translate(21.5527, 6.1000)" x="0" y="-1.8313" width="0.1073" height="2.4865" ry="0.0000" fill="currentColor"/>
<rect transform="translate(37.4624, 6.1000)" x="0" y="-1.8313" width="0.1073" height="2.4865" ry="0.0000" fill="currentColor"/>
<text transform="translate(21.8600, 6.1000)" font-family="serif" font-size="2.2000" text-anchor="start" fill="currentColor">
<tspan>Voice 1:upper</tspan>
</text>
</g>
<g color="rgb(0.0000%, 0.0000%, 50.0000%)">
<text transform="translate(21.8600, 9.1904)" font-family="serif" font-size="1.7462" text-anchor="start" fill="currentColor">
<tspan>1-0</tspan>
</text>
</g>
<text transform="translate(21.8600, 11.9355)" font-family="serif" font-size="2.2000" text-anchor="start" fill="currentColor">
<tspan>Slow</tspan>
</text>
<path transform="translate(21.8600, 21.3296) scale(0.0040, -0.0040)" d="M215 137c57 0 111 -29 111 -92c0 -71 -54 -120 -101 -148c-35 -21 -74 -34 -114 -34c-57 0 -111 29 -111 92c0 71 54 120 101 148c35 21 74 34 114 34z" fill="currentColor"/>
<g color="rgb(0.0000%, 0.0000%, 100.0000%)">
<rect transform="translate(21.8600, 31.7185)" x="-0.3073" y="-0.1073" width="15.7515" height="0.1073" ry="0.0000" fill="currentColor"/>
<rect transform="translate(21.8600, 29.4661)" x="-0.3073" y="-0.1073" width="15.7515" height="0.1073" ry="0.0000" fill="currentColor"/>
<rect transform="translate(21.5527, 31.3733)" x="0" y="-1.9072" width="0.1073" height="2.1451" ry="0.0000" fill="currentColor"/>
<rect transform="translate(37.1969, 31.3733)" x="0" y="-1.9072" width="0.1073" height="2.1451" ry="0.0000" fill="currentColor"/>
<text transform="translate(21.8600, 31.3733)" font-family="serif" font-size="2.2000" text-anchor="start" fill="currentColor">
<tspan>Voice 0:lower</tspan>
</text>
</g>
<g color="rgb(0.0000%, 0.0000%, 100.0000%)">
<text transform="translate(21.8600, 28.2814)" font-family="serif" font-size="1.7462" text-anchor="start" fill="currentColor">
<tspan>0-0</tspan>
</text>
</g>
<g color="rgb(62.7451%, 12.5490%, 94.1176%)">
<rect transform="translate(21.8600, 15.7504)" x="-0.3073" y="-0.1073" width="19.0899" height="0.1073" ry="0.0000" fill="currentColor"/>
<rect transform="translate(21.8600, 13.0807)" x="-0.3073" y="-0.1073" width="19.0899" height="0.1073" ry="0.0000" fill="currentColor"/>
<rect transform="translate(21.5527, 14.9879)" x="0" y="-1.9072" width="0.1073" height="2.5624" ry="0.0000" fill="currentColor"/>
<rect transform="translate(40.5353, 14.9879)" x="0" y="-1.9072" width="0.1073" height="2.5624" ry="0.0000" fill="currentColor"/>
<text transform="translate(21.8600, 14.9879)" font-family="serif" font-size="2.2000" text-anchor="start" fill="currentColor">
<tspan>ID: multiphonics</tspan>
</text>
</g>
<path transform="translate(21.8600, 21.3296) scale(0.0040, -0.0040)" d="M215 137c57 0 111 -29 111 -92c0 -71 -54 -120 -101 -148c-35 -21 -74 -34 -114 -34c-57 0 -111 29 -111 92c0 71 54 120 101 148c35 21 74 34 114 34z" fill="currentColor"/>
<g color="rgb(0.0000%, 0.0000%, 100.0000%)">
<text transform="translate(39.8600, 28.3999)" font-family="serif" font-size="1.7462" text-anchor="start" fill="currentColor">
<tspan>0-2</tspan>
</text>
</g>
<path transform="translate(41.1628, 17.6240) scale(0.0040, -0.0040)" d="M0 0c0 -197 207 -335 207 -532c0 -71 -15 -141 -41 -207c-5 -8 -13 -12 -21 -12c-14 0 -27 11 -24 28c26 60 42 125 42 191c0 103 -93 207 -163 282h-18v250h18z" fill="currentColor"/>
<rect transform="translate(41.0931, 21.3296)" x="-0.0697" y="-3.7500" width="0.1395" height="3.0706" ry="0.0444" fill="currentColor"/>
<path transform="translate(39.9995, 24.2851) scale(0.0040, -0.0040)" d="M0 0h-18v250h18c96 59 222 149 222 259c0 57 -15 111 -40 162c-3 17 10 29 24 29c8 0 16 -5 21 -13c25 -56 40 -116 40 -178c0 -203 -267 -306 -267 -509z" fill="currentColor"/>
<rect transform="translate(39.9297, 21.3296)" x="-0.0697" y="-0.3206" width="0.1395" height="3.3206" ry="0.0444" fill="currentColor"/>
<g color="rgb(0.0000%, 0.0000%, 50.0000%)">
<text transform="translate(39.8600, 11.9734)" font-family="serif" font-size="1.7462" text-anchor="start" fill="currentColor">
<tspan>1-2</tspan>
</text>
</g>
<path transform="translate(39.8600, 20.8296) scale(0.0040, -0.0040)" d="M215 137c57 0 111 -29 111 -92c0 -71 -54 -120 -101 -148c-35 -21 -74 -34 -114 -34c-57 0 -111 29 -111 92c0 71 54 120 101 148c35 21 74 34 114 34z" fill="currentColor"/>
<path transform="translate(39.8600, 20.8296) scale(0.0040, -0.0040)" d="M215 137c57 0 111 -29 111 -92c0 -71 -54 -120 -101 -148c-35 -21 -74 -34 -114 -34c-57 0 -111 29 -111 92c0 71 54 120 101 148c35 21 74 34 114 34z" fill="currentColor"/>
<path transform="translate(27.8600, 20.8296) scale(0.0040, -0.0040)" d="M215 137c57 0 111 -29 111 -92c0 -71 -54 -120 -101 -148c-35 -21 -74 -34 -114 -34c-57 0 -111 29 -111 92c0 71 54 120 101 148c35 21 74 34 114 34z" fill="currentColor"/>
<rect transform="translate(29.0931, 21.3296)" x="-0.0697" y="-3.6667" width="0.1395" height="2.9873" ry="0.0444" fill="currentColor"/>
<g color="rgb(0.0000%, 0.0000%, 100.0000%)">
<text transform="translate(27.8600, 28.3209)" font-family="serif" font-size="1.7462" text-anchor="start" fill="currentColor">
<tspan>0-1</tspan>
</text>
</g>
<rect transform="translate(27.9297, 21.3296)" x="-0.0697" y="-0.3206" width="0.1395" height="3.3206" ry="0.0444" fill="currentColor"/>
<g color="rgb(0.0000%, 0.0000%, 50.0000%)">
<text transform="translate(27.8600, 11.9734)" font-family="serif" font-size="1.7462" text-anchor="start" fill="currentColor">
<tspan>1-1</tspan>
</text>
</g>
<path transform="translate(27.8600, 20.8296) scale(0.0040, -0.0040)" d="M215 137c57 0 111 -29 111 -92c0 -71 -54 -120 -101 -148c-35 -21 -74 -34 -114 -34c-57 0 -111 29 -111 92c0 71 54 120 101 148c35 21 74 34 114 34z" fill="currentColor"/>
</svg>
