<svg xmlns="http://www.w3.org/2000/svg" xmlns:xlink="http://www.w3.org/1999/xlink" version="1.2" width="210.00mm" height="297.00mm" viewBox="0 0 132.7795 187.7882">
<style text="style/css">
<![CDATA[
tspan { white-space: pre; }
]]>
</style>
<!-- Page: 1/1 -->
<g color="rgb(49.8039%, 49.8039%, 49.8039%)">
<line transform="translate(16.0600, 18.3803)" stroke-linejoin="round" stroke-linecap="round" stroke-width="0.1073" stroke="currentColor" x1="0.0537" y1="-0.0000" x2="34.1577" y2="-0.0000"/>
<line transform="translate(16.0600, 17.3803)" stroke-linejoin="round" stroke-linecap="round" stroke-width="0.1073" stroke="currentColor" x1="0.0537" y1="-0.0000" x2="34.1577" y2="-0.0000"/>
<line transform="translate(16.0600, 16.3803)" stroke-linejoin="round" stroke-linecap="round" stroke-width="0.1073" stroke="currentColor" x1="0.0537" y1="-0.0000" x2="34.1577" y2="-0.0000"/>
<line transform="translate(16.0600, 15.3803)" stroke-linejoin="round" stroke-linecap="round" stroke-width="0.1073" stroke="currentColor" x1="0.0537" y1="-0.0000" x2="34.1577" y2="-0.0000"/>
<line transform="translate(16.0600, 14.3803)" stroke-linejoin="round" stroke-linecap="round" stroke-width="0.1073" stroke="currentColor" x1="0.0537" y1="-0.0000" x2="34.1577" y2="-0.0000"/>
</g>
<rect transform="translate(16.0600, 19.3803)" x="27.8856" y="-0.1037" width="1.9542" height="0.2073" ry="0.1037" fill="currentColor"/>
<rect transform="translate(16.0600, 19.3803)" x="21.8856" y="-0.1037" width="1.9542" height="0.2073" ry="0.1037" fill="currentColor"/>
<rect transform="translate(16.0600, 19.3803)" x="15.8856" y="-0.1037" width="1.9542" height="0.2073" ry="0.1037" fill="currentColor"/>
<rect transform="translate(16.0600, 19.3803)" x="9.8856" y="-0.1037" width="1.9542" height="0.2073" ry="0.1037" fill="currentColor"/>
<rect transform="translate(39.5016, 16.3803)" x="-0.0697" y="-2.0000" width="0.1395" height="3.0000" ry="0.0444" fill="currentColor"/>
<rect transform="translate(38.3411, 16.3803)" x="-0.0697" y="3.1794" width="0.1395" height="2.7131" ry="0.0444" fill="currentColor"/>
<g color="rgb(0.0000%, 0.0000%, 50.0000%)">
<text transform="translate(38.2713, 9.2283)" font-family="serif" font-size="1.7462" text-anchor="start" fill="currentColor">
<tspan>1-2</tspan>
</text>
</g>
<path transform="translate(38.2713, 17.3803) scale(0.0040, -0.0040)" d="M89 51c-2 -2 -3 -5 -3 -8s1 -5 3 -7l104 -117c2 -2 5 -3 8 -3s7 1 9 3l26 30c2 2 3 5 3 8s-1 5 -3 7l-104 117c-2 2 -5 3 -8 3s-7 -1 -9 -3zM0 0c0 3 1 5 3 7c55 52 106 108 151 169c2 3 6 4 9 4s6 -1 8 -4c45 -61 96 -117 151 -169c2 -2 3 -4 3 -7s-1 -5 -3 -7
c-55 -52 -106 -108 -151 -169c-2 -3 -5 -4 -8 -4s-7 1 -9 4c-45 61 -96 117 -151 169c-2 2 -3 4 -3 7z" fill="currentColor"/>
<g color="rgb(0.0000%, 0.0000%, 100.0000%)">
<text transform="translate(38.2713, 25.0281)" font-family="serif" font-size="1.7462" text-anchor="start" fill="currentColor">
<tspan>0-2</tspan>
</text>
</g>
<path transform="translate(38.2713, 19.3803) scale(0.0040, -0.0040)" d="M215 137c57 0 111 -29 111 -92c0 -71 -54 -120 -101 -148c-35 -21 -74 -34 -114 -34c-57 0 -111 29 -111 92c0 71 54 120 101 148c35 21 74 34 114 34z" fill="currentColor"/>
<rect transform="translate(33.5016, 16.3803)" x="-0.0697" y="-2.0000" width="0.1395" height="3.0000" ry="0.0444" fill="currentColor"/>
<polygon transform="translate(26.2713, 22.0590)" stroke-linejoin="round" stroke-linecap="round" stroke-width="0.0889" fill="currentColor" stroke="currentColor" points="18.0950 -0.0092 18.0950 0.6519 0.0444 0.3306 0.0444 -0.3306"/>
<polygon transform="translate(27.4319, 14.3803)" stroke-linejoin="round" stroke-linecap="round" stroke-width="0.0889" fill="currentColor" stroke="currentColor" points="18.0950 -0.3306 18.0950 0.3306 0.0444 0.3306 0.0444 -0.3306"/>
<path transform="translate(43.1581, 17.8803) scale(0.0040, -0.0040)" d="M139 39c-1 33 -21 64 -52 64c-29 0 -42 -33 -42 -66c0 -58 47 -100 91 -138c3 22 4 43 4 65v11zM183 -139c0 -14 -10 -27 -24 -27c-22 0 -31 27 -47 41c-60 52 -144 90 -144 169c0 54 35 103 86 103c34 0 68 -13 93 -36l-8 343c9 5 19 8 29 8s19 -3 28 -8z" fill="currentColor"/>
<path transform="translate(42.0830, 19.8803) scale(0.0040, -0.0040)" d="M139 39c-1 33 -21 64 -52 64c-29 0 -42 -33 -42 -66c0 -58 47 -100 91 -138c3 22 4 43 4 65v11zM183 -139c0 -14 -10 -27 -24 -27c-22 0 -31 27 -47 41c-60 52 -144 90 -144 169c0 54 35 103 86 103c34 0 68 -13 93 -36l-8 343c9 5 19 8 29 8s19 -3 28 -8z" fill="currentColor"/>
<rect transform="translate(45.5016, 16.3803)" x="-0.0697" y="-2.0000" width="0.1395" height="3.5000" ry="0.0444" fill="currentColor"/>
<rect transform="translate(44.3411, 16.3803)" x="-0.0697" y="3.6794" width="0.1395" height="2.3194" ry="0.0444" fill="currentColor"/>
<g color="rgb(0.0000%, 0.0000%, 50.0000%)">
<text transform="translate(44.2713, 9.1904)" font-family="serif" font-size="1.7462" text-anchor="start" fill="currentColor">
<tspan>1-3</tspan>
</text>
</g>
<path transform="translate(44.2713, 17.8803) scale(0.0040, -0.0040)" d="M89 51c-2 -2 -3 -5 -3 -8s1 -5 3 -7l104 -117c2 -2 5 -3 8 -3s7 1 9 3l26 30c2 2 3 5 3 8s-1 5 -3 7l-104 117c-2 2 -5 3 -8 3s-7 -1 -9 -3zM0 0c0 3 1 5 3 7c55 52 106 108 151 169c2 3 6 4 9 4s6 -1 8 -4c45 -61 96 -117 151 -169c2 -2 3 -4 3 -7s-1 -5 -3 -7
c-55 -52 -106 -108 -151 -169c-2 -3 -5 -4 -8 -4s-7 1 -9 4c-45 61 -96 117 -151 169c-2 2 -3 4 -3 7z" fill="currentColor"/>
<g color="rgb(0.0000%, 0.0000%, 100.0000%)">
<text transform="translate(44.2713, 25.0831)" font-family="serif" font-size="1.7462" text-anchor="start" fill="currentColor">
<tspan>0-3</tspan>
</text>
</g>
<path transform="translate(44.2713, 19.8803) scale(0.0040, -0.0040)" d="M215 137c57 0 111 -29 111 -92c0 -71 -54 -120 -101 -148c-35 -21 -74 -34 -114 -34c-57 0 -111 29 -111 92c0 71 54 120 101 148c35 21 74 34 114 34z" fill="currentColor"/>
<g color="rgb(0.0000%, 0.0000%, 50.0000%)">
<rect transform="translate(26.2713, 6.8626)" x="-0.3073" y="-0.1073" width="16.0170" height="0.1073" ry="0.0000" fill="currentColor"/>
<rect transform="translate(26.2713, 4.2687)" x="-0.3073" y="-0.1073" width="16.0170" height="0.1073" ry="0.0000" fill="currentColor"/>
<rect transform="translate(25.9640, 6.1000)" x="0" y="-1.8313" width="0.1073" height="2.4865" ry="0.0000" fill="currentColor"/>
<rect transform="translate(41.8738, 6.1000)" x="0" y="-1.8313" width="0.1073" height="2.4865" ry="0.0000" fill="currentColor"/>
<text transform="translate(26.2713, 6.1000)" font-family="serif" font-size="2.2000" text-anchor="start" fill="currentColor">
<tspan>Voice 1:upper</tspan>
</text>
</g>
<rect transform="translate(26.3411, 16.3803)" x="-0.0697" y="3.1794" width="0.1395" height="2.5005" ry="0.0444" fill="currentColor"/>
<path transform="translate(21.0600, 16.3803) scale(0.0040, -0.0040)" d="M203 301c22 15 45 30 61 51c12 15 19 34 27 51c2 4 5 6 9 6c6 0 14 -6 14 -15v-238h74c10 0 16 -8 16 -16s-6 -15 -16 -15h-74v-5c0 -49 29 -95 75 -95c8 0 12 -7 12 -13s-4 -12 -12 -12c-45 0 -90 13 -135 13s-90 -13 -135 -13c-8 0 -12 6 -12 12s4 13 12 13
c46 0 75 46 75 95v5h-163c-24 0 -33 15 -33 24c0 3 1 6 2 7c80 92 134 205 134 327c0 10 6 17 14 17h3c24 -7 48 -13 73 -13s48 6 72 13c2 1 4 1 6 1c9 0 14 -7 14 -13c0 -2 0 -3 -2 -5l-283 -327h163v122c0 9 2 18 9 23z" fill="currentColor"/>
<path transform="translate(21.0600, 18.4289) scale(0.0040, -0.0040)" d="M203 301c22 15 45 30 61 51c12 15 19 34 27 51c2 4 5 6 9 6c6 0 14 -6 14 -15v-238h74c10 0 16 -8 16 -16s-6 -15 -16 -15h-74v-5c0 -49 29 -95 75 -95c8 0 12 -7 12 -13s-4 -12 -12 -12c-45 0 -90 13 -135 13s-90 -13 -135 -13c-8 0 -12 6 -12 12s4 13 12 13
c46 0 75 46 75 95v5h-163c-24 0 -33 15 -33 24c0 3 1 6 2 7c80 92 134 205 134 327c0 10 6 17 14 17h3c24 -7 48 -13 73 -13s48 6 72 13c2 1 4 1 6 1c9 0 14 -7 14 -13c0 -2 0 -3 -2 -5l-283 -327h163v122c0 9 2 18 9 23z" fill="currentColor"/>
<path transform="translate(16.8600, 15.3803) scale(0.0040, -0.0040)" d="M558 -125c0 28 22 51 50 51s51 -23 51 -51s-23 -51 -51 -51s-50 23 -50 51zM558 125c0 28 22 51 50 51s51 -23 51 -51s-23 -51 -51 -51s-50 23 -50 51zM231 264c172 0 294 -88 294 -251c0 -263 -262 -416 -515 -523c-3 -3 -7 -4 -10 -4c-7 0 -14 7 -14 14c0 3 1 7 4 10
c201 118 410 265 410 492c0 119 -61 234 -169 234c-72 0 -124 -53 -148 -123c10 4 19 6 29 6c55 0 100 -45 100 -100c0 -58 -44 -106 -100 -106c-60 0 -112 47 -112 106c0 133 101 245 231 245z" fill="currentColor"/>
<rect transform="translate(27.5016, 16.3803)" x="-0.0697" y="-2.0000" width="0.1395" height="3.0000" ry="0.0444" fill="currentColor"/>
<g color="rgb(0.0000%, 0.0000%, 50.0000%)">
<text transform="translate(26.2713, 9.1904)" font-family="serif" font-size="1.7462" text-anchor="start" fill="currentColor">
<tspan>1-0</tspan>
</text>
</g>
<path transform="translate(26.2713, 17.3803) scale(0.0040, -0.0040)" d="M89 51c-2 -2 -3 -5 -3 -8s1 -5 3 -7l104 -117c2 -2 5 -3 8 -3s7 1 9 3l26 30c2 2 3 5 3 8s-1 5 -3 7l-104 117c-2 2 -5 3 -8 3s-7 -1 -9 -3zM0 0c0 3 1 5 3 7c55 52 106 108 151 169c2 3 6 4 9 4s6 -1 8 -4c45 -61 96 -117 151 -169c2 -2 3 -4 3 -7s-1 -5 -3 -7
c-55 -52 -106 -108 -151 -169c-2 -3 -5 -4 -8 -4s-7 1 -9 4c-45 61 -96 117 -151 169c-2 2 -3 4 -3 7z" fill="currentColor"/>
<g color="rgb(0.0000%, 0.0000%, 100.0000%)">
<rect transform="translate(26.2713, 28.4258)" x="-0.3073" y="-0.1073" width="15.7515" height="0.1073" ry="0.0000" fill="currentColor"/>
<rect transform="translate(26.2713, 26.1734)" x="-0.3073" y="-0.1073" width="15.7515" height="0.1073" ry="0.0000" fill="currentColor"/>
<rect transform="translate(25.9640, 28.0805)" x="0" y="-1.9072" width="0.1073" height="2.1451" ry="0.0000" fill="currentColor"/>
<rect transform="translate(41.6082, 28.0805)" x="0" y="-1.9072" width="0.1073" height="2.1451" ry="0.0000" fill="currentColor"/>
<text transform="translate(26.2713, 28.0805)" font-family="serif" font-size="2.2000" text-anchor="start" fill="currentColor">
<tspan>Voice 0:lower</tspan>
</text>
</g>
<g color="rgb(0.0000%, 0.0000%, 100.0000%)">
<text transform="translate(26.2713, 24.8145)" font-family="serif" font-size="1.7462" text-anchor="start" fill="currentColor">
<tspan>0-0</tspan>
</text>
</g>
<g color="rgb(62.7451%, 12.5490%, 94.1176%)">
<rect transform="translate(26.2713, 13.0053)" x="-0.3073" y="-0.1073" width="19.0899" height="0.1073" ry="0.0000" fill="currentColor"/>
<rect transform="translate(26.2713, 10.3356)" x="-0.3073" y="-0.1073" width="19.0899" height="0.1073" ry="0.0000" fill="currentColor"/>
<rect transform="translate(25.9640, 12.2428)" x="0" y="-1.9072" width="0.1073" height="2.5624" ry="0.0000" fill="currentColor"/>
<rect transform="translate(44.9467, 12.2428)" x="0" y="-1.9072" width="0.1073" height="2.5624" ry="0.0000" fill="currentColor"/>
<text transform="translate(26.2713, 12.2428)" font-family="serif" font-size="2.2000" text-anchor="start" fill="currentColor">
<tspan>ID: multiphonics</tspan>
</text>
</g>
<path transform="translate(26.2713, 19.3803) scale(0.0040, -0.0040)" d="M215 137c57 0 111 -29 111 -92c0 -71 -54 -120 -101 -148c-35 -21 -74 -34 -114 -34c-57 0 -111 29 -111 92c0 71 54 120 101 148c35 21 74 34 114 34z" fill="currentColor"/>
<rect transform="translate(32.3411, 16.3803)" x="-0.0697" y="3.1794" width="0.1395" height="2.6068" ry="0.0444" fill="currentColor"/>
<g color="rgb(0.0000%, 0.0000%, 50.0000%)">
<text transform="translate(32.2713, 9.2283)" font-family="serif" font-size="1.7462" text-anchor="start" fill="currentColor">
<tspan>1-1</tspan>
</text>
</g>
<path transform="translate(32.2713, 17.3803) scale(0.0040, -0.0040)" d="M89 51c-2 -2 -3 -5 -3 -8s1 -5 3 -7l104 -117c2 -2 5 -3 8 -3s7 1 9 3l26 30c2 2 3 5 3 8s-1 5 -3 7l-104 117c-2 2 -5 3 -8 3s-7 -1 -9 -3zM0 0c0 3 1 5 3 7c55 52 106 108 151 169c2 3 6 4 9 4s6 -1 8 -4c45 -61 96 -117 151 -169c2 -2 3 -4 3 -7s-1 -5 -3 -7
c-55 -52 -106 -108 -151 -169c-2 -3 -5 -4 -8 -4s-7 1 -9 4c-45 61 -96 117 -151 169c-2 2 -3 4 -3 7z" fill="currentColor"/>
<g color="rgb(0.0000%, 0.0000%, 100.0000%)">
<text transform="translate(32.2713, 24.9213)" font-family="serif" font-size="1.7462" text-anchor="start" fill="currentColor">
<tspan>0-1</tspan>
</text>
</g>
<path transform="translate(32.2713, 19.3803) scale(0.0040, -0.0040)" d="M215 137c57 0 111 -29 111 -92c0 -71 -54 -120 -101 -148c-35 -21 -74 -34 -114 -34c-57 0 -111 29 -111 92c0 71 54 120 101 148c35 21 74 34 114 34z" fill="currentColor"/>
<path transform="translate(25.1581, 17.3803) scale(0.0040, -0.0040)" d="M139 39c-1 33 -21 64 -52 64c-29 0 -42 -33 -42 -66c0 -58 47 -100 91 -138c3 22 4 43 4 65v11zM183 -139c0 -14 -10 -27 -24 -27c-22 0 -31 27 -47 41c-60 52 -144 90 -144 169c0 54 35 103 86 103c34 0 68 -13 93 -36l-8 343c9 5 19 8 29 8s19 -3 28 -8z" fill="currentColor"/>
<path transform="translate(24.0830, 19.3803) scale(0.0040, -0.0040)" d="M139 39c-1 33 -21 64 -52 64c-29 0 -42 -33 -42 -66c0 -58 47 -100 91 -138c3 22 4 43 4 65v11zM183 -139c0 -14 -10 -27 -24 -27c-22 0 -31 27 -47 41c-60 52 -144 90 -144 169c0 54 35 103 86 103c34 0 68 -13 93 -36l-8 343c9 5 19 8 29 8s19 -3 28 -8z" fill="currentColor"/>
</svg>
