<svg xmlns="http://www.w3.org/2000/svg" xmlns:xlink="http://www.w3.org/1999/xlink" version="1.2" width="210.00mm" height="297.00mm" viewBox="0 0 132.7795 187.7882">
<style text="style/css">
<![CDATA[
tspan { white-space: pre; }
]]>
</style>
<!-- Page: 1/1 -->
<g color="rgb(49.8039%, 49.8039%, 49.8039%)">
<line transform="translate(16.0600, 20.0053)" stroke-linejoin="round" stroke-linecap="round" stroke-width="0.1073" stroke="currentColor" x1="0.0537" y1="-0.0000" x2="107.7669" y2="-0.0000"/>
<line transform="translate(16.0600, 19.0053)" stroke-linejoin="round" stroke-linecap="round" stroke-width="0.1073" stroke="currentColor" x1="0.0537" y1="-0.0000" x2="107.7669" y2="-0.0000"/>
<line transform="translate(16.0600, 18.0053)" stroke-linejoin="round" stroke-linecap="round" stroke-width="0.1073" stroke="currentColor" x1="0.0537" y1="-0.0000" x2="107.7669" y2="-0.0000"/>
<line transform="translate(16.0600, 17.0053)" stroke-linejoin="round" stroke-linecap="round" stroke-width="0.1073" stroke="currentColor" x1="0.0537" y1="-0.0000" x2="107.7669" y2="-0.0000"/>
<line transform="translate(16.0600, 16.0053)" stroke-linejoin="round" stroke-linecap="round" stroke-width="0.1073" stroke="currentColor" x1="0.0537" y1="-0.0000" x2="107.7669" y2="-0.0000"/>
</g>
<rect transform="translate(16.0600, 21.0053)" x="95.4948" y="-0.1037" width="1.9542" height="0.2073" ry="0.1037" fill="currentColor"/>
<rect transform="translate(16.0600, 22.0053)" x="95.6455" y="-0.1037" width="1.8035" height="0.2073" ry="0.1037" fill="currentColor"/>
<rect transform="translate(16.0600, 21.0053)" x="83.4948" y="-0.1037" width="1.9542" height="0.2073" ry="0.1037" fill="currentColor"/>
<rect transform="translate(16.0600, 22.0053)" x="83.6309" y="-0.1037" width="1.8182" height="0.2073" ry="0.1037" fill="currentColor"/>
<rect transform="translate(16.0600, 21.0053)" x="71.4948" y="-0.1037" width="1.9542" height="0.2073" ry="0.1037" fill="currentColor"/>
<rect transform="translate(16.0600, 22.0053)" x="71.6455" y="-0.1037" width="1.8035" height="0.2073" ry="0.1037" fill="currentColor"/>
<rect transform="translate(16.0600, 21.0053)" x="59.4948" y="-0.1037" width="1.9542" height="0.2073" ry="0.1037" fill="currentColor"/>
<rect transform="translate(73.2330, 18.0053)" x="0.0000" y="-2.0537" width="0.2039" height="4.1073" ry="0.0000" fill="currentColor"/>
<rect transform="translate(123.6767, 18.0053)" x="0.0000" y="-2.0537" width="0.2039" height="4.1073" ry="0.0000" fill="currentColor"/>
<path transform="translate(86.4305, 22.0053) scale(0.0040, -0.0040)" d="M217 -311c0 -11 -8 -19 -19 -19s-20 8 -20 19v142l-81 -30v-156c0 -11 -9 -20 -20 -20s-19 9 -19 20v142l-28 -11c-3 -1 -5 -1 -8 -1c-12 0 -22 10 -22 23v57c0 9 6 18 15 21l43 16v157l-28 -10c-3 -1 -5 -1 -8 -1c-12 0 -22 9 -22 22v57c0 9 6 18 15 21l43 16v157
c0 11 8 19 19 19s20 -8 20 -19v-142l81 30v156c0 11 9 20 20 20s19 -9 19 -20v-142l28 11c3 1 5 1 8 1c12 0 22 -10 22 -23v-57c0 -9 -6 -18 -15 -21l-43 -16v-157l28 10c3 1 5 1 8 1c12 0 22 -9 22 -22v-57c0 -9 -6 -18 -15 -21l-43 -16v-157zM97 64v-158l81 30v158z" fill="currentColor"/>
<path transform="translate(87.8805, 22.0053) scale(0.0040, -0.0040)" d="M215 137c57 0 111 -29 111 -92c0 -71 -54 -120 -101 -148c-35 -21 -74 -34 -114 -34c-57 0 -111 29 -111 92c0 71 54 120 101 148c35 21 74 34 114 34z" fill="currentColor"/>
<g color="rgb(0.0000%, 0.0000%, 100.0000%)">
<text transform="translate(87.8805, 26.8331)" font-family="serif" font-size="1.7462" text-anchor="start" fill="currentColor">
<tspan>0-5</tspan>
</text>
</g>
<path transform="translate(87.8805, 19.5053) scale(0.0040, -0.0040)" d="M89 51c-2 -2 -3 -5 -3 -8s1 -5 3 -7l104 -117c2 -2 5 -3 8 -3s7 1 9 3l26 30c2 2 3 5 3 8s-1 5 -3 7l-104 117c-2 2 -5 3 -8 3s-7 -1 -9 -3zM0 0c0 3 1 5 3 7c55 52 106 108 151 169c2 3 6 4 9 4s6 -1 8 -4c45 -61 96 -117 151 -169c2 -2 3 -4 3 -7s-1 -5 -3 -7
c-55 -52 -106 -108 -151 -169c-2 -3 -5 -4 -8 -4s-7 1 -9 4c-45 61 -96 117 -151 169c-2 2 -3 4 -3 7z" fill="currentColor"/>
<g color="rgb(0.0000%, 0.0000%, 50.0000%)">
<text transform="translate(87.8805, 14.9137)" font-family="serif" font-size="1.7462" text-anchor="start" fill="currentColor">
<tspan>1-5</tspan>
</text>
</g>
<rect transform="translate(87.9503, 18.0053)" x="-0.0697" y="4.1794" width="0.1395" height="2.3206" ry="0.0444" fill="currentColor"/>
<rect transform="translate(89.1108, 18.0053)" x="-0.0697" y="-2.0000" width="0.1395" height="3.5000" ry="0.0444" fill="currentColor"/>
<rect transform="translate(77.1108, 18.0053)" x="-0.0697" y="-2.5000" width="0.1395" height="3.5000" ry="0.0444" fill="currentColor"/>
<path transform="translate(75.8805, 21.0053) scale(0.0040, -0.0040)" d="M215 137c57 0 111 -29 111 -92c0 -71 -54 -120 -101 -148c-35 -21 -74 -34 -114 -34c-57 0 -111 29 -111 92c0 71 54 120 101 148c35 21 74 34 114 34z" fill="currentColor"/>
<g color="rgb(0.0000%, 0.0000%, 100.0000%)">
<text transform="translate(75.8805, 25.8331)" font-family="serif" font-size="1.7462" text-anchor="start" fill="currentColor">
<tspan>0-4</tspan>
</text>
</g>
<path transform="translate(75.8805, 19.0053) scale(0.0040, -0.0040)" d="M89 51c-2 -2 -3 -5 -3 -8s1 -5 3 -7l104 -117c2 -2 5 -3 8 -3s7 1 9 3l26 30c2 2 3 5 3 8s-1 5 -3 7l-104 117c-2 2 -5 3 -8 3s-7 -1 -9 -3zM0 0c0 3 1 5 3 7c55 52 106 108 151 169c2 3 6 4 9 4s6 -1 8 -4c45 -61 96 -117 151 -169c2 -2 3 -4 3 -7s-1 -5 -3 -7
c-55 -52 -106 -108 -151 -169c-2 -3 -5 -4 -8 -4s-7 1 -9 4c-45 61 -96 117 -151 169c-2 2 -3 4 -3 7z" fill="currentColor"/>
<g color="rgb(0.0000%, 0.0000%, 50.0000%)">
<text transform="translate(75.8805, 14.5053)" font-family="serif" font-size="1.7462" text-anchor="start" fill="currentColor">
<tspan>1-4</tspan>
</text>
</g>
<rect transform="translate(75.9503, 18.0053)" x="-0.0697" y="3.1794" width="0.1395" height="2.3206" ry="0.0444" fill="currentColor"/>
<path transform="translate(74.1665, 21.0053) scale(0.0040, -0.0040)" d="M29 39l-2 -64v-11c0 -22 2 -43 5 -65c44 38 91 80 91 138c0 33 -13 66 -42 66c-31 0 -51 -31 -52 -64zM-16 -139l-12 593c9 5 18 8 28 8s19 -3 28 -8l-7 -343c25 23 58 36 92 36c51 0 87 -49 87 -103c0 -79 -84 -117 -144 -169c-16 -14 -25 -41 -47 -41
c-14 0 -25 13 -25 27z" fill="currentColor"/>
<path transform="translate(74.7305, 19.0053) scale(0.0040, -0.0040)" d="M29 39l-2 -64v-11c0 -22 2 -43 5 -65c44 38 91 80 91 138c0 33 -13 66 -42 66c-31 0 -51 -31 -52 -64zM-16 -139l-12 593c9 5 18 8 28 8s19 -3 28 -8l-7 -343c25 23 58 36 92 36c51 0 87 -49 87 -103c0 -79 -84 -117 -144 -169c-16 -14 -25 -41 -47 -41
c-14 0 -25 13 -25 27z" fill="currentColor"/>
<g color="rgb(0.0000%, 0.0000%, 50.0000%)">
<text transform="translate(111.8805, 14.9517)" font-family="serif" font-size="1.7462" text-anchor="start" fill="currentColor">
<tspan>1-7</tspan>
</text>
</g>
<rect transform="translate(111.9503, 18.0053)" x="-0.0697" y="4.6794" width="0.1395" height="2.3206" ry="0.0444" fill="currentColor"/>
<rect transform="translate(113.1108, 18.0053)" x="-0.0697" y="-1.0000" width="0.1395" height="3.5000" ry="0.0444" fill="currentColor"/>
<path transform="translate(110.7305, 22.5053) scale(0.0040, -0.0040)" d="M29 39l-2 -64v-11c0 -22 2 -43 5 -65c44 38 91 80 91 138c0 33 -13 66 -42 66c-31 0 -51 -31 -52 -64zM-16 -139l-12 593c9 5 18 8 28 8s19 -3 28 -8l-7 -343c25 23 58 36 92 36c51 0 87 -49 87 -103c0 -79 -84 -117 -144 -169c-16 -14 -25 -41 -47 -41
c-14 0 -25 13 -25 27z" fill="currentColor"/>
<path transform="translate(111.8805, 20.5053) scale(0.0040, -0.0040)" d="M89 51c-2 -2 -3 -5 -3 -8s1 -5 3 -7l104 -117c2 -2 5 -3 8 -3s7 1 9 3l26 30c2 2 3 5 3 8s-1 5 -3 7l-104 117c-2 2 -5 3 -8 3s-7 -1 -9 -3zM0 0c0 3 1 5 3 7c55 52 106 108 151 169c2 3 6 4 9 4s6 -1 8 -4c45 -61 96 -117 151 -169c2 -2 3 -4 3 -7s-1 -5 -3 -7
c-55 -52 -106 -108 -151 -169c-2 -3 -5 -4 -8 -4s-7 1 -9 4c-45 61 -96 117 -151 169c-2 2 -3 4 -3 7z" fill="currentColor"/>
<path transform="translate(86.7305, 19.5053) scale(0.0040, -0.0040)" d="M29 39l-2 -64v-11c0 -22 2 -43 5 -65c44 38 91 80 91 138c0 33 -13 66 -42 66c-31 0 -51 -31 -52 -64zM-16 -139l-12 593c9 5 18 8 28 8s19 -3 28 -8l-7 -343c25 23 58 36 92 36c51 0 87 -49 87 -103c0 -79 -84 -117 -144 -169c-16 -14 -25 -41 -47 -41
c-14 0 -25 13 -25 27z" fill="currentColor"/>
<path transform="translate(99.8805, 22.0053) scale(0.0040, -0.0040)" d="M215 137c57 0 111 -29 111 -92c0 -71 -54 -120 -101 -148c-35 -21 -74 -34 -114 -34c-57 0 -111 29 -111 92c0 71 54 120 101 148c35 21 74 34 114 34z" fill="currentColor"/>
<g color="rgb(0.0000%, 0.0000%, 100.0000%)">
<text transform="translate(99.8805, 26.8331)" font-family="serif" font-size="1.7462" text-anchor="start" fill="currentColor">
<tspan>0-6</tspan>
</text>
</g>
<path transform="translate(99.8805, 20.0053) scale(0.0040, -0.0040)" d="M89 51c-2 -2 -3 -5 -3 -8s1 -5 3 -7l104 -117c2 -2 5 -3 8 -3s7 1 9 3l26 30c2 2 3 5 3 8s-1 5 -3 7l-104 117c-2 2 -5 3 -8 3s-7 -1 -9 -3zM0 0c0 3 1 5 3 7c55 52 106 108 151 169c2 3 6 4 9 4s6 -1 8 -4c45 -61 96 -117 151 -169c2 -2 3 -4 3 -7s-1 -5 -3 -7
c-55 -52 -106 -108 -151 -169c-2 -3 -5 -4 -8 -4s-7 1 -9 4c-45 61 -96 117 -151 169c-2 2 -3 4 -3 7z" fill="currentColor"/>
<g color="rgb(0.0000%, 0.0000%, 50.0000%)">
<text transform="translate(99.8805, 14.9137)" font-family="serif" font-size="1.7462" text-anchor="start" fill="currentColor">
<tspan>1-6</tspan>
</text>
</g>
<rect transform="translate(99.9503, 18.0053)" x="-0.0697" y="4.1794" width="0.1395" height="2.3206" ry="0.0444" fill="currentColor"/>
<rect transform="translate(101.1108, 18.0053)" x="-0.0697" y="-1.5000" width="0.1395" height="3.5000" ry="0.0444" fill="currentColor"/>
<path transform="translate(98.8345, 22.0053) scale(0.0040, -0.0040)" d="M-8 375c8 5 17 7 26 7s18 -2 26 -7l-3 -187l104 21h4c10 0 18 -8 18 -18l7 -566c-8 -5 -16 -7 -25 -7s-18 2 -26 7l2 187l-103 -21h-4c-10 0 -18 8 -18 18zM130 111l-90 -18l-3 -204l90 18z" fill="currentColor"/>
<path transform="translate(111.8805, 22.5053) scale(0.0040, -0.0040)" d="M215 137c57 0 111 -29 111 -92c0 -71 -54 -120 -101 -148c-35 -21 -74 -34 -114 -34c-57 0 -111 29 -111 92c0 71 54 120 101 148c35 21 74 34 114 34z" fill="currentColor"/>
<g color="rgb(0.0000%, 0.0000%, 100.0000%)">
<text transform="translate(111.8805, 27.3331)" font-family="serif" font-size="1.7462" text-anchor="start" fill="currentColor">
<tspan>0-7</tspan>
</text>
</g>
<path transform="translate(24.0830, 19.0053) scale(0.0040, -0.0040)" d="M29 39l-2 -64v-11c0 -22 2 -43 5 -65c44 38 91 80 91 138c0 33 -13 66 -42 66c-31 0 -51 -31 -52 -64zM-16 -139l-12 593c9 5 18 8 28 8s19 -3 28 -8l-7 -343c25 23 58 36 92 36c51 0 87 -49 87 -103c0 -79 -84 -117 -144 -169c-16 -14 -25 -41 -47 -41
c-14 0 -25 13 -25 27z" fill="currentColor"/>
<path transform="translate(37.2330, 19.5053) scale(0.0040, -0.0040)" d="M215 137c57 0 111 -29 111 -92c0 -71 -54 -120 -101 -148c-35 -21 -74 -34 -114 -34c-57 0 -111 29 -111 92c0 71 54 120 101 148c35 21 74 34 114 34z" fill="currentColor"/>
<g color="rgb(0.0000%, 0.0000%, 100.0000%)">
<text transform="translate(37.2330, 24.6664)" font-family="serif" font-size="1.7462" text-anchor="start" fill="currentColor">
<tspan>0-1</tspan>
</text>
</g>
<path transform="translate(37.2330, 17.5053) scale(0.0040, -0.0040)" d="M89 51c-2 -2 -3 -5 -3 -8s1 -5 3 -7l104 -117c2 -2 5 -3 8 -3s7 1 9 3l26 30c2 2 3 5 3 8s-1 5 -3 7l-104 117c-2 2 -5 3 -8 3s-7 -1 -9 -3zM0 0c0 3 1 5 3 7c55 52 106 108 151 169c2 3 6 4 9 4s6 -1 8 -4c45 -61 96 -117 151 -169c2 -2 3 -4 3 -7s-1 -5 -3 -7
c-55 -52 -106 -108 -151 -169c-2 -3 -5 -4 -8 -4s-7 1 -9 4c-45 61 -96 117 -151 169c-2 2 -3 4 -3 7z" fill="currentColor"/>
<g color="rgb(0.0000%, 0.0000%, 50.0000%)">
<text transform="translate(37.2330, 9.2283)" font-family="serif" font-size="1.7462" text-anchor="start" fill="currentColor">
<tspan>1-1</tspan>
</text>
</g>
<rect transform="translate(37.3028, 18.0053)" x="-0.0697" y="1.6794" width="0.1395" height="2.6540" ry="0.0444" fill="currentColor"/>
<path transform="translate(60.1870, 18.5053) scale(0.0040, -0.0040)" d="M-8 375c8 5 17 7 26 7s18 -2 26 -7l-3 -187l104 21h4c10 0 18 -8 18 -18l7 -566c-8 -5 -16 -7 -25 -7s-18 2 -26 7l2 187l-103 -21h-4c-10 0 -18 8 -18 18zM130 111l-90 -18l-3 -204l90 18z" fill="currentColor"/>
<rect transform="translate(38.4633, 18.0053)" x="-0.0697" y="-3.6667" width="0.1395" height="3.1667" ry="0.0444" fill="currentColor"/>
<g color="rgb(0.0000%, 0.0000%, 50.0000%)">
<rect transform="translate(25.2330, 6.8626)" x="-0.3073" y="-0.1073" width="16.0170" height="0.1073" ry="0.0000" fill="currentColor"/>
<rect transform="translate(25.2330, 4.2687)" x="-0.3073" y="-0.1073" width="16.0170" height="0.1073" ry="0.0000" fill="currentColor"/>
<rect transform="translate(24.9257, 6.1000)" x="0" y="-1.8313" width="0.1073" height="2.4865" ry="0.0000" fill="currentColor"/>
<rect transform="translate(40.8354, 6.1000)" x="0" y="-1.8313" width="0.1073" height="2.4865" ry="0.0000" fill="currentColor"/>
<text transform="translate(25.2330, 6.1000)" font-family="serif" font-size="2.2000" text-anchor="start" fill="currentColor">
<tspan>Voice 1:upper</tspan>
</text>
</g>
<path transform="translate(25.2330, 19.0053) scale(0.0040, -0.0040)" d="M215 137c57 0 111 -29 111 -92c0 -71 -54 -120 -101 -148c-35 -21 -74 -34 -114 -34c-57 0 -111 29 -111 92c0 71 54 120 101 148c35 21 74 34 114 34z" fill="currentColor"/>
<g color="rgb(62.7451%, 12.5490%, 94.1176%)">
<rect transform="translate(25.2330, 13.0053)" x="-0.3073" y="-0.1073" width="19.0899" height="0.1073" ry="0.0000" fill="currentColor"/>
<rect transform="translate(25.2330, 10.3356)" x="-0.3073" y="-0.1073" width="19.0899" height="0.1073" ry="0.0000" fill="currentColor"/>
<rect transform="translate(24.9257, 12.2428)" x="0" y="-1.9072" width="0.1073" height="2.5624" ry="0.0000" fill="currentColor"/>
<rect transform="translate(43.9083, 12.2428)" x="0" y="-1.9072" width="0.1073" height="2.5624" ry="0.0000" fill="currentColor"/>
<text transform="translate(25.2330, 12.2428)" font-family="serif" font-size="2.2000" text-anchor="start" fill="currentColor">
<tspan>ID: multiphonics</tspan>
</text>
</g>
<g color="rgb(0.0000%, 0.0000%, 100.0000%)">
<text transform="translate(25.2330, 24.3331)" font-family="serif" font-size="1.7462" text-anchor="start" fill="currentColor">
<tspan>0-0</tspan>
</text>
</g>
<g color="rgb(0.0000%, 0.0000%, 100.0000%)">
<rect transform="translate(25.2330, 28.0641)" x="-0.3073" y="-0.1073" width="15.7515" height="0.1073" ry="0.0000" fill="currentColor"/>
<rect transform="translate(25.2330, 25.8117)" x="-0.3073" y="-0.1073" width="15.7515" height="0.1073" ry="0.0000" fill="currentColor"/>
<rect transform="translate(24.9257, 27.7188)" x="0" y="-1.9072" width="0.1073" height="2.1451" ry="0.0000" fill="currentColor"/>
<rect transform="translate(40.5699, 27.7188)" x="0" y="-1.9072" width="0.1073" height="2.1451" ry="0.0000" fill="currentColor"/>
<text transform="translate(25.2330, 27.7188)" font-family="serif" font-size="2.2000" text-anchor="start" fill="currentColor">
<tspan>Voice 0:lower</tspan>
</text>
</g>
<path transform="translate(25.2330, 17.0053) scale(0.0040, -0.0040)" d="M89 51c-2 -2 -3 -5 -3 -8s1 -5 3 -7l104 -117c2 -2 5 -3 8 -3s7 1 9 3l26 30c2 2 3 5 3 8s-1 5 -3 7l-104 117c-2 2 -5 3 -8 3s-7 -1 -9 -3zM0 0c0 3 1 5 3 7c55 52 106 108 151 169c2 3 6 4 9 4s6 -1 8 -4c45 -61 96 -117 151 -169c2 -2 3 -4 3 -7s-1 -5 -3 -7
c-55 -52 -106 -108 -151 -169c-2 -3 -5 -4 -8 -4s-7 1 -9 4c-45 61 -96 117 -151 169c-2 2 -3 4 -3 7z" fill="currentColor"/>
<g color="rgb(0.0000%, 0.0000%, 50.0000%)">
<text transform="translate(25.2330, 9.1904)" font-family="serif" font-size="1.7462" text-anchor="start" fill="currentColor">
<tspan>1-0</tspan>
</text>
</g>
<path transform="translate(16.8600, 17.0053) scale(0.0040, -0.0040)" d="M558 -125c0 28 22 51 50 51s51 -23 51 -51s-23 -51 -51 -51s-50 23 -50 51zM558 125c0 28 22 51 50 51s51 -23 51 -51s-23 -51 -51 -51s-50 23 -50 51zM231 264c172 0 294 -88 294 -251c0 -263 -262 -416 -515 -523c-3 -3 -7 -4 -10 -4c-7 0 -14 7 -14 14c0 3 1 7 4 10
c201 118 410 265 410 492c0 119 -61 234 -169 234c-72 0 -124 -53 -148 -123c10 4 19 6 29 6c55 0 100 -45 100 -100c0 -58 -44 -106 -100 -106c-60 0 -112 47 -112 106c0 133 101 245 231 245z" fill="currentColor"/>
<path transform="translate(21.0600, 18.0053) scale(0.0040, -0.0040)" d="M203 301c22 15 45 30 61 51c12 15 19 34 27 51c2 4 5 6 9 6c6 0 14 -6 14 -15v-238h74c10 0 16 -8 16 -16s-6 -15 -16 -15h-74v-5c0 -49 29 -95 75 -95c8 0 12 -7 12 -13s-4 -12 -12 -12c-45 0 -90 13 -135 13s-90 -13 -135 -13c-8 0 -12 6 -12 12s4 13 12 13
c46 0 75 46 75 95v5h-163c-24 0 -33 15 -33 24c0 3 1 6 2 7c80 92 134 205 134 327c0 10 6 17 14 17h3c24 -7 48 -13 73 -13s48 6 72 13c2 1 4 1 6 1c9 0 14 -7 14 -13c0 -2 0 -3 -2 -5l-283 -327h163v122c0 9 2 18 9 23z" fill="currentColor"/>
<path transform="translate(21.0600, 20.0539) scale(0.0040, -0.0040)" d="M203 301c22 15 45 30 61 51c12 15 19 34 27 51c2 4 5 6 9 6c6 0 14 -6 14 -15v-238h74c10 0 16 -8 16 -16s-6 -15 -16 -15h-74v-5c0 -49 29 -95 75 -95c8 0 12 -7 12 -13s-4 -12 -12 -12c-45 0 -90 13 -135 13s-90 -13 -135 -13c-8 0 -12 6 -12 12s4 13 12 13
c46 0 75 46 75 95v5h-163c-24 0 -33 15 -33 24c0 3 1 6 2 7c80 92 134 205 134 327c0 10 6 17 14 17h3c24 -7 48 -13 73 -13s48 6 72 13c2 1 4 1 6 1c9 0 14 -7 14 -13c0 -2 0 -3 -2 -5l-283 -327h163v122c0 9 2 18 9 23z" fill="currentColor"/>
<rect transform="translate(25.3028, 18.0053)" x="-0.0697" y="1.1794" width="0.1395" height="2.8206" ry="0.0444" fill="currentColor"/>
<rect transform="translate(26.4633, 18.0053)" x="-0.0697" y="-4.0000" width="0.1395" height="3.0000" ry="0.0444" fill="currentColor"/>
<rect transform="translate(61.3028, 18.0053)" x="-0.0697" y="2.6794" width="0.1395" height="2.3206" ry="0.0444" fill="currentColor"/>
<path transform="translate(47.7830, 18.5053) scale(0.0040, -0.0040)" d="M217 -311c0 -11 -8 -19 -19 -19s-20 8 -20 19v142l-81 -30v-156c0 -11 -9 -20 -20 -20s-19 9 -19 20v142l-28 -11c-3 -1 -5 -1 -8 -1c-12 0 -22 10 -22 23v57c0 9 6 18 15 21l43 16v157l-28 -10c-3 -1 -5 -1 -8 -1c-12 0 -22 9 -22 22v57c0 9 6 18 15 21l43 16v157
c0 11 8 19 19 19s20 -8 20 -19v-142l81 30v156c0 11 9 20 20 20s19 -9 19 -20v-142l28 11c3 1 5 1 8 1c12 0 22 -10 22 -23v-57c0 -9 -6 -18 -15 -21l-43 -16v-157l28 10c3 1 5 1 8 1c12 0 22 -9 22 -22v-57c0 -9 -6 -18 -15 -21l-43 -16v-157zM97 64v-158l81 30v158z" fill="currentColor"/>
<path transform="translate(61.2330, 20.5053) scale(0.0040, -0.0040)" d="M215 137c57 0 111 -29 111 -92c0 -71 -54 -120 -101 -148c-35 -21 -74 -34 -114 -34c-57 0 -111 29 -111 92c0 71 54 120 101 148c35 21 74 34 114 34z" fill="currentColor"/>
<g color="rgb(0.0000%, 0.0000%, 100.0000%)">
<text transform="translate(61.2330, 25.3331)" font-family="serif" font-size="1.7462" text-anchor="start" fill="currentColor">
<tspan>0-3</tspan>
</text>
</g>
<path transform="translate(61.2330, 18.5053) scale(0.0040, -0.0040)" d="M89 51c-2 -2 -3 -5 -3 -8s1 -5 3 -7l104 -117c2 -2 5 -3 8 -3s7 1 9 3l26 30c2 2 3 5 3 8s-1 5 -3 7l-104 117c-2 2 -5 3 -8 3s-7 -1 -9 -3zM0 0c0 3 1 5 3 7c55 52 106 108 151 169c2 3 6 4 9 4s6 -1 8 -4c45 -61 96 -117 151 -169c2 -2 3 -4 3 -7s-1 -5 -3 -7
c-55 -52 -106 -108 -151 -169c-2 -3 -5 -4 -8 -4s-7 1 -9 4c-45 61 -96 117 -151 169c-2 2 -3 4 -3 7z" fill="currentColor"/>
<g color="rgb(0.0000%, 0.0000%, 50.0000%)">
<text transform="translate(61.2330, 13.9674)" font-family="serif" font-size="1.7462" text-anchor="start" fill="currentColor">
<tspan>1-3</tspan>
</text>
</g>
<path transform="translate(46.5830, 20.5053) scale(0.0040, -0.0040)" d="M217 -311c0 -11 -8 -19 -19 -19s-20 8 -20 19v142l-81 -30v-156c0 -11 -9 -20 -20 -20s-19 9 -19 20v142l-28 -11c-3 -1 -5 -1 -8 -1c-12 0 -22 10 -22 23v57c0 9 6 18 15 21l43 16v157l-28 -10c-3 -1 -5 -1 -8 -1c-12 0 -22 9 -22 22v57c0 9 6 18 15 21l43 16v157
c0 11 8 19 19 19s20 -8 20 -19v-142l81 30v156c0 11 9 20 20 20s19 -9 19 -20v-142l28 11c3 1 5 1 8 1c12 0 22 -10 22 -23v-57c0 -9 -6 -18 -15 -21l-43 -16v-157l28 10c3 1 5 1 8 1c12 0 22 -9 22 -22v-57c0 -9 -6 -18 -15 -21l-43 -16v-157zM97 64v-158l81 30v158z" fill="currentColor"/>
<rect transform="translate(62.4633, 18.0053)" x="-0.0697" y="-3.0000" width="0.1395" height="3.5000" ry="0.0444" fill="currentColor"/>
<path transform="translate(59.6768, 20.5053) scale(0.0040, -0.0040)" d="M-8 375c8 5 17 7 26 7s18 -2 26 -7l-3 -187l104 21h4c10 0 18 -8 18 -18l7 -566c-8 -5 -16 -7 -25 -7s-18 2 -26 7l2 187l-103 -21h-4c-10 0 -18 8 -18 18zM130 111l-90 -18l-3 -204l90 18z" fill="currentColor"/>
<path transform="translate(49.2330, 20.5053) scale(0.0040, -0.0040)" d="M215 137c57 0 111 -29 111 -92c0 -71 -54 -120 -101 -148c-35 -21 -74 -34 -114 -34c-57 0 -111 29 -111 92c0 71 54 120 101 148c35 21 74 34 114 34z" fill="currentColor"/>
<path transform="translate(35.5190, 19.5053) scale(0.0040, -0.0040)" d="M29 39l-2 -64v-11c0 -22 2 -43 5 -65c44 38 91 80 91 138c0 33 -13 66 -42 66c-31 0 -51 -31 -52 -64zM-16 -139l-12 593c9 5 18 8 28 8s19 -3 28 -8l-7 -343c25 23 58 36 92 36c51 0 87 -49 87 -103c0 -79 -84 -117 -144 -169c-16 -14 -25 -41 -47 -41
c-14 0 -25 13 -25 27z" fill="currentColor"/>
<path transform="translate(36.0830, 17.5053) scale(0.0040, -0.0040)" d="M29 39l-2 -64v-11c0 -22 2 -43 5 -65c44 38 91 80 91 138c0 33 -13 66 -42 66c-31 0 -51 -31 -52 -64zM-16 -139l-12 593c9 5 18 8 28 8s19 -3 28 -8l-7 -343c25 23 58 36 92 36c51 0 87 -49 87 -103c0 -79 -84 -117 -144 -169c-16 -14 -25 -41 -47 -41
c-14 0 -25 13 -25 27z" fill="currentColor"/>
<g color="rgb(0.0000%, 0.0000%, 100.0000%)">
<text transform="translate(49.2330, 25.3331)" font-family="serif" font-size="1.7462" text-anchor="start" fill="currentColor">
<tspan>0-2</tspan>
</text>
</g>
<path transform="translate(49.2330, 18.5053) scale(0.0040, -0.0040)" d="M89 51c-2 -2 -3 -5 -3 -8s1 -5 3 -7l104 -117c2 -2 5 -3 8 -3s7 1 9 3l26 30c2 2 3 5 3 8s-1 5 -3 7l-104 117c-2 2 -5 3 -8 3s-7 -1 -9 -3zM0 0c0 3 1 5 3 7c55 52 106 108 151 169c2 3 6 4 9 4s6 -1 8 -4c45 -61 96 -117 151 -169c2 -2 3 -4 3 -7s-1 -5 -3 -7
c-55 -52 -106 -108 -151 -169c-2 -3 -5 -4 -8 -4s-7 1 -9 4c-45 61 -96 117 -151 169c-2 2 -3 4 -3 7z" fill="currentColor"/>
<rect transform="translate(50.4633, 18.0053)" x="-0.0697" y="-3.0000" width="0.1395" height="3.5000" ry="0.0444" fill="currentColor"/>
<rect transform="translate(49.3028, 18.0053)" x="-0.0697" y="2.6794" width="0.1395" height="2.3206" ry="0.0444" fill="currentColor"/>
<g color="rgb(0.0000%, 0.0000%, 50.0000%)">
<text transform="translate(49.2330, 14.0053)" font-family="serif" font-size="1.7462" text-anchor="start" fill="currentColor">
<tspan>1-2</tspan>
</text>
</g>
</svg>
