<svg xmlns="http://www.w3.org/2000/svg" xmlns:xlink="http://www.w3.org/1999/xlink" version="1.2" width="174.60mm" height="41.02mm" viewBox="0.0000 -0.0000 110.3967 25.9378">
<style text="style/css">
<![CDATA[
tspan { white-space: pre; }
]]>
</style>
<g color="rgb(49.8039%, 49.8039%, 49.8039%)">
<line transform="translate(0.0000, 14.5048)" stroke-linejoin="round" stroke-linecap="round" stroke-width="0.1073" stroke="currentColor" x1="0.0537" y1="-0.0000" x2="110.3430" y2="-0.0000"/>
<line transform="translate(0.0000, 13.5048)" stroke-linejoin="round" stroke-linecap="round" stroke-width="0.1073" stroke="currentColor" x1="0.0537" y1="-0.0000" x2="110.3430" y2="-0.0000"/>
<line transform="translate(0.0000, 12.5048)" stroke-linejoin="round" stroke-linecap="round" stroke-width="0.1073" stroke="currentColor" x1="0.0537" y1="-0.0000" x2="110.3430" y2="-0.0000"/>
<line transform="translate(0.0000, 11.5048)" stroke-linejoin="round" stroke-linecap="round" stroke-width="0.1073" stroke="currentColor" x1="0.0537" y1="-0.0000" x2="110.3430" y2="-0.0000"/>
<line transform="translate(0.0000, 10.5048)" stroke-linejoin="round" stroke-linecap="round" stroke-width="0.1073" stroke="currentColor" x1="0.0537" y1="-0.0000" x2="110.3430" y2="-0.0000"/>
</g>
<rect transform="translate(92.0006, 12.5048)" x="0.0000" y="-2.0537" width="0.2039" height="4.1073" ry="0.0000" fill="currentColor"/>
<rect transform="translate(69.9211, 12.5048)" x="0.0000" y="-2.0537" width="0.2039" height="4.1073" ry="0.0000" fill="currentColor"/>
<rect transform="translate(50.6904, 12.5048)" x="0.0000" y="-2.0537" width="0.2039" height="4.1073" ry="0.0000" fill="currentColor"/>
<rect transform="translate(27.8311, 12.5048)" x="0.0000" y="-2.0537" width="0.2039" height="4.1073" ry="0.0000" fill="currentColor"/>
<rect transform="translate(0.0000, 9.5048)" x="107.2644" y="-0.1037" width="1.9500" height="0.2073" ry="0.1037" fill="currentColor"/>
<rect transform="translate(0.0000, 9.5048)" x="97.9353" y="-0.1037" width="1.9500" height="0.2073" ry="0.1037" fill="currentColor"/>
<rect transform="translate(0.0000, 9.5048)" x="80.4154" y="-0.1037" width="2.5800" height="0.2073" ry="0.1037" fill="currentColor"/>
<rect transform="translate(0.0000, 9.5048)" x="65.6917" y="-0.1037" width="3.5250" height="0.2073" ry="0.1037" fill="currentColor"/>
<rect transform="translate(0.0000, 9.5048)" x="34.0534" y="-0.1037" width="1.9542" height="0.2073" ry="0.1037" fill="currentColor"/>
<rect transform="translate(0.0000, 9.5048)" x="22.8214" y="-0.1037" width="2.0709" height="0.2073" ry="0.1037" fill="currentColor"/>
<path transform="translate(83.8538, 10.5048) scale(0.0040, -0.0040)" d="M29 39l-2 -64v-11c0 -22 2 -43 5 -65c44 38 91 80 91 138c0 33 -13 66 -42 66c-31 0 -51 -31 -52 -64zM-16 -139l-12 593c9 5 18 8 28 8s19 -3 28 -8l-7 -343c25 23 58 36 92 36c51 0 87 -49 87 -103c0 -79 -84 -117 -144 -169c-16 -14 -25 -41 -47 -41
c-14 0 -25 13 -25 27z" fill="currentColor"/>
<path transform="translate(85.0038, 10.5048) scale(0.0040, -0.0040)" d="M199 37c-3 -2 -6 -3 -9 -3s-7 1 -10 3l-95 71l-41 -31l87 -64c4 -3 7 -8 7 -13s-3 -10 -7 -13l-87 -64l41 -31l95 71c3 2 7 3 10 3s6 -1 9 -3l96 -71l41 31l-87 64c-4 3 -7 8 -7 13s3 10 7 13l87 64l-41 31zM190 70l96 71c3 2 6 3 9 3s7 -1 10 -3l68 -51c4 -3 7 -8 7 -13
s-3 -10 -7 -13l-87 -64l87 -64c4 -3 7 -8 7 -13s-3 -10 -7 -13l-68 -51c-3 -2 -7 -3 -10 -3s-6 1 -9 3l-96 71l-96 -71c-3 -2 -6 -3 -9 -3s-7 1 -10 3l-68 51c-4 3 -7 8 -7 13s3 10 7 13l87 64l-87 64c-4 3 -7 8 -7 13s3 10 7 13l68 51c3 2 7 3 10 3s6 -1 9 -3z" fill="currentColor"/>
<g color="rgb(0.0000%, 0.0000%, 50.0000%)">
<text transform="translate(85.0038, 6.8002)" font-family="serif" font-size="1.7462" text-anchor="start" fill="currentColor">
<tspan>1-5</tspan>
</text>
</g>
<g transform="translate(84.1699, 16.3724)" >
<path transform="scale(0.0040, -0.0040)" d="M-44 146c26 76 84 153 152 153c22 0 36 -19 41 -43c23 25 53 43 82 43c23 0 37 -19 43 -44c22 26 51 44 80 44c33 0 59 -35 59 -69c0 -5 -1 -10 -2 -15l-35 -149c0 -2 -1 -4 -1 -5c0 -5 2 -8 7 -8c9 0 27 11 48 31c5 5 10 6 14 6c6 0 12 -4 12 -10c0 -4 -2 -8 -7 -13
c-40 -38 -87 -74 -133 -74c-20 0 -32 13 -32 32c0 4 0 7 1 11l39 165c1 5 2 9 2 14c0 10 -4 18 -14 18c-16 0 -33 -16 -39 -32l-52 -182c-3 -10 -15 -19 -25 -19h-38c-11 0 -17 8 -14 19l52 182c2 6 3 11 3 16c0 9 -4 16 -13 16c-16 0 -35 -15 -41 -32l-62 -182
c-4 -11 -15 -19 -26 -19h-38c-11 0 -16 8 -12 19l62 182c2 5 2 10 2 15c0 10 -3 17 -13 17c-29 0 -54 -53 -66 -87c-4 -12 -15 -18 -24 -18c-7 0 -13 3 -13 11c0 2 0 5 1 7z" fill="currentColor"/>

<path transform="translate(1.7451, 0.0000) scale(0.0040, -0.0040)" d="M233 243c-56 0 -102 -108 -102 -174c0 -22 8 -38 30 -38c63 0 97 127 97 179c0 18 -7 33 -25 33zM111 -146c-37 0 -76 5 -114 5s-79 -5 -115 -5c-9 0 -14 8 -14 15c0 19 30 16 48 17c23 1 47 7 54 27l101 296c2 7 5 14 5 20c0 8 -3 14 -11 14c-33 0 -61 -60 -77 -97
c-5 -13 -17 -19 -26 -19c-8 0 -15 5 -15 13c0 3 1 7 2 10c30 68 73 142 133 142c35 0 58 -22 65 -52c29 31 67 52 103 52c69 0 107 -49 107 -114c0 -21 -4 -44 -12 -67c-20 -58 -91 -120 -147 -120c-27 0 -52 6 -73 18c-10 6 -24 3 -27 -6l-27 -80c-1 -3 -2 -6 -2 -9
c0 -21 20 -28 43 -30c9 -1 13 -8 13 -15s-5 -15 -14 -15z" fill="currentColor"/>
</g>
<path transform="translate(85.7633, 4.3924) scale(0.0040, -0.0040)" d="M-69 48c0 38 31 69 69 69s69 -31 69 -69s-31 -68 -69 -68s-69 30 -69 68zM0 364c158 0 333 -176 333 -367c0 -10 -10 -17 -20 -17c-9 0 -19 6 -21 20c-26 147 -145 261 -292 261s-266 -114 -292 -261c-2 -14 -12 -20 -21 -20c-10 0 -20 7 -20 17c0 191 176 367 333 367z
" fill="currentColor"/>
<path transform="translate(85.7633, 12.0048) scale(0.0040, -0.0040)" d="M-50 0c0 28 22 50 50 50s50 -22 50 -50s-22 -50 -50 -50s-50 22 -50 50z" fill="currentColor"/>
<rect transform="translate(86.4530, 12.5048)" x="-0.0697" y="-4.6667" width="0.1395" height="2.3631" ry="0.0444" fill="currentColor"/>
<path transform="translate(66.2792, 9.5048) scale(0.0040, -0.0040)" d="M114 -195h120l239 390h-120zM11 -264c-7 0 -11 6 -11 12c0 2 1 4 2 6l310 504c2 3 5 6 9 6h255c7 0 12 -6 12 -12c0 -2 -1 -4 -2 -6l-310 -504c-2 -3 -6 -6 -10 -6h-255z" fill="currentColor"/>
<g color="rgb(0.0000%, 0.0000%, 50.0000%)">
<text transform="translate(66.2792, 5.9668)" font-family="serif" font-size="1.7462" text-anchor="start" fill="currentColor">
<tspan>1-3</tspan>
</text>
</g>
<g transform="translate(66.0126, 16.3563)" >
<path transform="scale(0.0040, -0.0040)" d="M233 243c-56 0 -102 -108 -102 -174c0 -22 8 -38 30 -38c63 0 97 127 97 179c0 18 -7 33 -25 33zM111 -146c-37 0 -76 5 -114 5s-79 -5 -115 -5c-9 0 -14 8 -14 15c0 19 30 16 48 17c23 1 47 7 54 27l101 296c2 7 5 14 5 20c0 8 -3 14 -11 14c-33 0 -61 -60 -77 -97
c-5 -13 -17 -19 -26 -19c-8 0 -15 5 -15 13c0 3 1 7 2 10c30 68 73 142 133 142c35 0 58 -22 65 -52c29 31 67 52 103 52c69 0 107 -49 107 -114c0 -21 -4 -44 -12 -67c-20 -58 -91 -120 -147 -120c-27 0 -52 6 -73 18c-10 6 -24 3 -27 -6l-27 -80c-1 -3 -2 -6 -2 -9
c0 -21 20 -28 43 -30c9 -1 13 -8 13 -15s-5 -15 -14 -15z" fill="currentColor"/>

<path transform="translate(1.4416, 0.0000) scale(0.0040, -0.0040)" d="M233 243c-56 0 -102 -108 -102 -174c0 -22 8 -38 30 -38c63 0 97 127 97 179c0 18 -7 33 -25 33zM111 -146c-37 0 -76 5 -114 5s-79 -5 -115 -5c-9 0 -14 8 -14 15c0 19 30 16 48 17c23 1 47 7 54 27l101 296c2 7 5 14 5 20c0 8 -3 14 -11 14c-33 0 -61 -60 -77 -97
c-5 -13 -17 -19 -26 -19c-8 0 -15 5 -15 13c0 3 1 7 2 10c30 68 73 142 133 142c35 0 58 -22 65 -52c29 31 67 52 103 52c69 0 107 -49 107 -114c0 -21 -4 -44 -12 -67c-20 -58 -91 -120 -147 -120c-27 0 -52 6 -73 18c-10 6 -24 3 -27 -6l-27 -80c-1 -3 -2 -6 -2 -9
c0 -21 20 -28 43 -30c9 -1 13 -8 13 -15s-5 -15 -14 -15z" fill="currentColor"/>
</g>
<path transform="translate(69.0752, 9.0048) scale(0.0040, -0.0040)" d="M0 0c0 31 25 56 56 56s55 -25 55 -56s-24 -56 -55 -56s-56 25 -56 56z" fill="currentColor"/>
<rect transform="translate(68.5594, 12.5048)" x="-0.0697" y="-5.5000" width="0.1395" height="1.4460" ry="0.0444" fill="currentColor"/>
<path transform="translate(80.8454, 9.5048) scale(0.0040, -0.0040)" d="M11 -264c-7 0 -11 6 -11 12c0 2 1 4 2 6l310 504c2 3 5 6 9 6h98c7 0 11 -6 11 -12c0 -2 -1 -4 -2 -6l-310 -504c-2 -3 -5 -6 -9 -6h-98z" fill="currentColor"/>
<g color="rgb(0.0000%, 0.0000%, 50.0000%)">
<text transform="translate(80.8454, 5.2548)" font-family="serif" font-size="1.7462" text-anchor="start" fill="currentColor">
<tspan>1-4</tspan>
</text>
</g>
<g transform="translate(80.2638, 16.3563)" >
<path transform="scale(0.0040, -0.0040)" d="M233 243c-56 0 -102 -108 -102 -174c0 -22 8 -38 30 -38c63 0 97 127 97 179c0 18 -7 33 -25 33zM111 -146c-37 0 -76 5 -114 5s-79 -5 -115 -5c-9 0 -14 8 -14 15c0 19 30 16 48 17c23 1 47 7 54 27l101 296c2 7 5 14 5 20c0 8 -3 14 -11 14c-33 0 -61 -60 -77 -97
c-5 -13 -17 -19 -26 -19c-8 0 -15 5 -15 13c0 3 1 7 2 10c30 68 73 142 133 142c35 0 58 -22 65 -52c29 31 67 52 103 52c69 0 107 -49 107 -114c0 -21 -4 -44 -12 -67c-20 -58 -91 -120 -147 -120c-27 0 -52 6 -73 18c-10 6 -24 3 -27 -6l-27 -80c-1 -3 -2 -6 -2 -9
c0 -21 20 -28 43 -30c9 -1 13 -8 13 -15s-5 -15 -14 -15z" fill="currentColor"/>

<path transform="translate(1.4416, 0.0000) scale(0.0040, -0.0040)" d="M233 243c-56 0 -102 -108 -102 -174c0 -22 8 -38 30 -38c63 0 97 127 97 179c0 18 -7 33 -25 33zM111 -146c-37 0 -76 5 -114 5s-79 -5 -115 -5c-9 0 -14 8 -14 15c0 19 30 16 48 17c23 1 47 7 54 27l101 296c2 7 5 14 5 20c0 8 -3 14 -11 14c-33 0 -61 -60 -77 -97
c-5 -13 -17 -19 -26 -19c-8 0 -15 5 -15 13c0 3 1 7 2 10c30 68 73 142 133 142c35 0 58 -22 65 -52c29 31 67 52 103 52c69 0 107 -49 107 -114c0 -21 -4 -44 -12 -67c-20 -58 -91 -120 -147 -120c-27 0 -52 6 -73 18c-10 6 -24 3 -27 -6l-27 -80c-1 -3 -2 -6 -2 -9
c0 -21 20 -28 43 -30c9 -1 13 -8 13 -15s-5 -15 -14 -15z" fill="currentColor"/>
</g>
<rect transform="translate(82.4957, 12.5048)" x="-0.0697" y="-6.2500" width="0.1395" height="2.1960" ry="0.0444" fill="currentColor"/>
<path transform="translate(82.5654, 6.2992) scale(0.0040, -0.0040)" d="M0 0c0 -177 201 -292 201 -469c0 -33 -9 -65 -23 -95c18 -36 29 -75 29 -117c0 -63 -15 -126 -41 -183c-5 -8 -13 -12 -21 -12c-14 0 -27 11 -24 28c26 52 42 109 42 167c0 96 -93 189 -163 256v-75h-18v500h18zM149 -514c5 14 8 30 8 45c0 95 -89 189 -157 256
c0 -116 88 -204 149 -301z" fill="currentColor"/>
<path transform="translate(85.0038, 12.5048)" stroke-width="0.0858" stroke-linejoin="round" stroke-linecap="round" stroke="currentColor" fill="currentColor" d="M0.9594 -1.2500C2.1569 -0.3154 9.0121 -0.3154 10.2095 -1.2500L10.2095 -1.2500C9.0121 -0.4441 2.1569 -0.4441 0.9594 -1.2500z"/>
<path transform="translate(107.5944, 17.0829) scale(0.0040, -0.0040)" d="M252 241l-49 -161c-30 -99 -121 -256 -218 -256c-46 0 -87 30 -87 73c0 39 17 77 52 77c24 0 44 -20 44 -44c0 -30 -38 -24 -38 -54c0 -10 11 -11 23 -11h6c47 0 61 56 73 105l68 271h-47c-11 0 -21 10 -21 21s10 21 21 21h58c32 95 119 189 213 189c46 0 87 -29 87 -72
c0 -39 -17 -78 -52 -78c-24 0 -44 20 -44 44c0 30 38 25 38 55c0 10 -10 10 -22 10h-7c-60 0 -70 -84 -86 -148h53c11 0 21 -10 21 -21s-10 -21 -21 -21h-65z" fill="currentColor"/>
<rect transform="translate(108.8196, 12.5048)" x="-0.0697" y="-6.2500" width="0.1395" height="3.2500" ry="0.0444" fill="currentColor"/>
<path transform="translate(108.8894, 6.2992) scale(0.0040, -0.0040)" d="M0 0c0 -177 201 -292 201 -469c0 -33 -9 -65 -23 -95c18 -36 29 -75 29 -117c0 -63 -15 -126 -41 -183c-5 -8 -13 -12 -21 -12c-14 0 -27 11 -24 28c26 52 42 109 42 167c0 96 -93 189 -163 256v-75h-18v500h18zM149 -514c5 14 8 30 8 45c0 95 -89 189 -157 256
c0 -116 88 -204 149 -301z" fill="currentColor"/>
<path transform="translate(98.2603, 12.5048)" stroke-width="0.0858" stroke-linejoin="round" stroke-linecap="round" stroke="currentColor" fill="currentColor" d="M0.8500 -2.2500C2.0304 -1.3199 8.5986 -1.3199 9.7790 -2.2500L9.7790 -2.2500C8.5986 -1.4487 2.0304 -1.4487 0.8500 -2.2500z"/>
<g color="rgb(0.0000%, 0.0000%, 50.0000%)">
<text transform="translate(107.5894, 5.2168)" font-family="serif" font-size="1.7462" text-anchor="start" fill="currentColor">
<tspan>1-8</tspan>
</text>
</g>
<path transform="translate(66.2792, 12.5048)" stroke-width="0.0858" stroke-linejoin="round" stroke-linecap="round" stroke="currentColor" fill="currentColor" d="M1.3750 -2.2500C2.7566 -1.2729 13.8446 -1.2729 15.2262 -2.2500L15.2262 -2.2500C13.8446 -1.4017 2.7566 -1.4017 1.3750 -2.2500z"/>
<path transform="translate(23.1665, 12.5048)" stroke-width="0.0858" stroke-linejoin="round" stroke-linecap="round" stroke="currentColor" fill="currentColor" d="M1.5806 -4.0000C2.7873 -4.9371 9.8058 -4.9371 11.0125 -4.0000L11.0125 -4.0000C9.8058 -4.8083 2.7873 -4.8083 1.5806 -4.0000z"/>
<path transform="translate(94.7619, 10.5048) scale(0.0040, -0.0040)" d="M163 39l115 94c3 2 6 4 10 4s8 -2 11 -4l21 -17c4 -3 6 -8 6 -13s-2 -9 -6 -12l-110 -91l110 -91c4 -3 6 -7 6 -12s-2 -10 -6 -13l-21 -17c-3 -2 -7 -4 -11 -4s-7 2 -10 4l-115 94l-115 -94c-3 -2 -7 -4 -11 -4s-7 2 -10 4l-21 17c-4 3 -6 8 -6 13s2 9 6 12l110 91
l-110 91c-4 3 -6 7 -6 12s2 10 6 13l21 17c3 2 6 4 10 4s8 -2 11 -4z" fill="currentColor"/>
<g color="rgb(0.0000%, 0.0000%, 50.0000%)">
<text transform="translate(94.7619, 6.4668)" font-family="serif" font-size="1.7462" text-anchor="start" fill="currentColor">
<tspan>1-6</tspan>
</text>
</g>
<g transform="translate(93.8200, 16.3724)" >
<path transform="scale(0.0040, -0.0040)" d="M-44 146c26 76 84 153 152 153c22 0 36 -19 41 -43c23 25 53 43 82 43c23 0 37 -19 43 -44c22 26 51 44 80 44c33 0 59 -35 59 -69c0 -5 -1 -10 -2 -15l-35 -149c0 -2 -1 -4 -1 -5c0 -5 2 -8 7 -8c9 0 27 11 48 31c5 5 10 6 14 6c6 0 12 -4 12 -10c0 -4 -2 -8 -7 -13
c-40 -38 -87 -74 -133 -74c-20 0 -32 13 -32 32c0 4 0 7 1 11l39 165c1 5 2 9 2 14c0 10 -4 18 -14 18c-16 0 -33 -16 -39 -32l-52 -182c-3 -10 -15 -19 -25 -19h-38c-11 0 -17 8 -14 19l52 182c2 6 3 11 3 16c0 9 -4 16 -13 16c-16 0 -35 -15 -41 -32l-62 -182
c-4 -11 -15 -19 -26 -19h-38c-11 0 -16 8 -12 19l62 182c2 5 2 10 2 15c0 10 -3 17 -13 17c-29 0 -54 -53 -66 -87c-4 -12 -15 -18 -24 -18c-7 0 -13 3 -13 11c0 2 0 5 1 7z" fill="currentColor"/>

<path transform="translate(1.7451, 0.0000) scale(0.0040, -0.0040)" d="M233 243c-56 0 -102 -108 -102 -174c0 -22 8 -38 30 -38c63 0 97 127 97 179c0 18 -7 33 -25 33zM111 -146c-37 0 -76 5 -114 5s-79 -5 -115 -5c-9 0 -14 8 -14 15c0 19 30 16 48 17c23 1 47 7 54 27l101 296c2 7 5 14 5 20c0 8 -3 14 -11 14c-33 0 -61 -60 -77 -97
c-5 -13 -17 -19 -26 -19c-8 0 -15 5 -15 13c0 3 1 7 2 10c30 68 73 142 133 142c35 0 58 -22 65 -52c29 31 67 52 103 52c69 0 107 -49 107 -114c0 -21 -4 -44 -12 -67c-20 -58 -91 -120 -147 -120c-27 0 -52 6 -73 18c-10 6 -24 3 -27 -6l-27 -80c-1 -3 -2 -6 -2 -9
c0 -21 20 -28 43 -30c9 -1 13 -8 13 -15s-5 -15 -14 -15z" fill="currentColor"/>
</g>
<path transform="translate(95.4133, 4.0590) scale(0.0040, -0.0040)" d="M-69 48c0 38 31 69 69 69s69 -31 69 -69s-31 -68 -69 -68s-69 30 -69 68zM0 364c158 0 333 -176 333 -367c0 -10 -10 -17 -20 -17c-9 0 -19 6 -21 20c-26 147 -145 261 -292 261s-266 -114 -292 -261c-2 -14 -12 -20 -21 -20c-10 0 -20 7 -20 17c0 191 176 367 333 367z
" fill="currentColor"/>
<path transform="translate(95.4133, 12.0048) scale(0.0040, -0.0040)" d="M-50 0c0 28 22 50 50 50s50 -22 50 -50s-22 -50 -50 -50s-50 22 -50 50z" fill="currentColor"/>
<path transform="translate(97.2695, 10.0048) scale(0.0040, -0.0040)" d="M0 0c0 31 25 56 56 56s55 -25 55 -56s-24 -56 -55 -56s-56 25 -56 56z" fill="currentColor"/>
<rect transform="translate(95.9950, 12.5048)" x="-0.0697" y="-5.0000" width="0.1395" height="2.5923" ry="0.0444" fill="currentColor"/>
<path transform="translate(96.0648, 7.5492) scale(0.0040, -0.0040)" d="M0 0c0 -197 207 -335 207 -532c0 -71 -15 -141 -41 -207c-5 -8 -13 -12 -21 -12c-14 0 -27 11 -24 28c26 60 42 125 42 191c0 103 -93 207 -163 282h-18v250h18z" fill="currentColor"/>
<path transform="translate(98.2603, 9.5048) scale(0.0040, -0.0040)" d="M0 0c0 3 1 5 3 7c55 52 106 108 151 169c2 3 6 4 9 4s6 -1 8 -4c45 -61 96 -117 151 -169c2 -2 3 -4 3 -7s-1 -5 -3 -7c-55 -52 -106 -108 -151 -169c-2 -3 -5 -4 -8 -4s-7 1 -9 4c-45 61 -96 117 -151 169c-2 2 -3 4 -3 7z" fill="currentColor"/>
<g color="rgb(0.0000%, 0.0000%, 50.0000%)">
<text transform="translate(98.2603, 6.0048)" font-family="serif" font-size="1.7462" text-anchor="start" fill="currentColor">
<tspan>1-7</tspan>
</text>
</g>
<path transform="translate(98.2654, 17.0829) scale(0.0040, -0.0040)" d="M252 241l-49 -161c-30 -99 -121 -256 -218 -256c-46 0 -87 30 -87 73c0 39 17 77 52 77c24 0 44 -20 44 -44c0 -30 -38 -24 -38 -54c0 -10 11 -11 23 -11h6c47 0 61 56 73 105l68 271h-47c-11 0 -21 10 -21 21s10 21 21 21h58c32 95 119 189 213 189c46 0 87 -29 87 -72
c0 -39 -17 -78 -52 -78c-24 0 -44 20 -44 44c0 30 38 25 38 55c0 10 -10 10 -22 10h-7c-60 0 -70 -84 -86 -148h53c11 0 21 -10 21 -21s-10 -21 -21 -21h-65z" fill="currentColor"/>
<rect transform="translate(99.4906, 12.5048)" x="-0.0697" y="-5.5000" width="0.1395" height="2.5000" ry="0.0444" fill="currentColor"/>
<path transform="translate(107.5894, 9.5048) scale(0.0040, -0.0040)" d="M0 0c0 3 1 5 3 7c55 52 106 108 151 169c2 3 6 4 9 4s6 -1 8 -4c45 -61 96 -117 151 -169c2 -2 3 -4 3 -7s-1 -5 -3 -7c-55 -52 -106 -108 -151 -169c-2 -3 -5 -4 -8 -4s-7 1 -9 4c-45 61 -96 117 -151 169c-2 2 -3 4 -3 7z" fill="currentColor"/>
<path transform="translate(23.1665, 9.0048) scale(0.0040, -0.0040)" d="M312 64c0 24 -20 41 -41 41c-4 0 -8 -1 -12 -2c-30 -9 -77 -38 -113 -62s-83 -54 -103 -78c-7 -8 -10 -17 -10 -27c0 -24 20 -41 41 -41c4 0 8 1 12 2c30 9 77 38 113 62s83 54 103 78c7 8 10 17 10 27zM259 137c48 0 86 -22 86 -74c0 -18 -4 -38 -10 -56
c-12 -38 -30 -73 -63 -95c-53 -36 -113 -49 -186 -49c-48 0 -86 22 -86 74c0 18 4 38 10 56c12 38 31 73 64 95c53 36 112 49 185 49z" fill="currentColor"/>
<path transform="translate(8.0230, 10.0048) scale(0.0040, -0.0040)" d="M29 39l-2 -64v-11c0 -22 2 -43 5 -65c44 38 91 80 91 138c0 33 -13 66 -42 66c-31 0 -51 -31 -52 -64zM-16 -139l-12 593c9 5 18 8 28 8s19 -3 28 -8l-7 -343c25 23 58 36 92 36c51 0 87 -49 87 -103c0 -79 -84 -117 -144 -169c-16 -14 -25 -41 -47 -41
c-14 0 -25 13 -25 27z" fill="currentColor"/>
<g color="rgb(0.0000%, 0.0000%, 100.0000%)">
<text transform="translate(23.1665, 20.1315)" font-family="serif" font-size="1.7462" text-anchor="start" fill="currentColor">
<tspan>0-1</tspan>
</text>
</g>
<g transform="translate(22.3394, 17.0829)" >
<path transform="scale(0.0040, -0.0040)" d="M-44 146c26 76 84 153 152 153c22 0 36 -19 41 -43c23 25 53 43 82 43c23 0 37 -19 43 -44c22 26 51 44 80 44c33 0 59 -35 59 -69c0 -5 -1 -10 -2 -15l-35 -149c0 -2 -1 -4 -1 -5c0 -5 2 -8 7 -8c9 0 27 11 48 31c5 5 10 6 14 6c6 0 12 -4 12 -10c0 -4 -2 -8 -7 -13
c-40 -38 -87 -74 -133 -74c-20 0 -32 13 -32 32c0 4 0 7 1 11l39 165c1 5 2 9 2 14c0 10 -4 18 -14 18c-16 0 -33 -16 -39 -32l-52 -182c-3 -10 -15 -19 -25 -19h-38c-11 0 -17 8 -14 19l52 182c2 6 3 11 3 16c0 9 -4 16 -13 16c-16 0 -35 -15 -41 -32l-62 -182
c-4 -11 -15 -19 -26 -19h-38c-11 0 -16 8 -12 19l62 182c2 5 2 10 2 15c0 10 -3 17 -13 17c-29 0 -54 -53 -66 -87c-4 -12 -15 -18 -24 -18c-7 0 -13 3 -13 11c0 2 0 5 1 7z" fill="currentColor"/>

<path transform="translate(1.7451, 0.0000) scale(0.0040, -0.0040)" d="M252 241l-49 -161c-30 -99 -121 -256 -218 -256c-46 0 -87 30 -87 73c0 39 17 77 52 77c24 0 44 -20 44 -44c0 -30 -38 -24 -38 -54c0 -10 11 -11 23 -11h6c47 0 61 56 73 105l68 271h-47c-11 0 -21 10 -21 21s10 21 21 21h58c32 95 119 189 213 189c46 0 87 -29 87 -72
c0 -39 -17 -78 -52 -78c-24 0 -44 20 -44 44c0 30 38 25 38 55c0 10 -10 10 -22 10h-7c-60 0 -70 -84 -86 -148h53c11 0 21 -10 21 -21s-10 -21 -21 -21h-65z" fill="currentColor"/>
</g>
<rect transform="translate(23.2363, 12.5048)" x="-0.0697" y="-3.2470" width="0.1395" height="3.2470" ry="0.0444" fill="currentColor"/>
<path transform="translate(29.7146, 10.5048) scale(0.0040, -0.0040)" d="M291 50h-173l173 -112v112zM0 94c0 10 8 17 18 17h290c10 0 18 -7 18 -17v-188c0 -10 -8 -17 -18 -17c-3 0 -6 0 -9 2l-291 188c-5 3 -8 9 -8 15z" fill="currentColor"/>
<g color="rgb(0.0000%, 0.0000%, 50.0000%)">
<text transform="translate(29.7146, 6.7590)" font-family="serif" font-size="1.7462" text-anchor="start" fill="currentColor">
<tspan>1-1</tspan>
</text>
</g>
<path transform="translate(33.2473, 10.0048) scale(0.0040, -0.0040)" d="M0 0c0 31 25 56 56 56s55 -25 55 -56s-24 -56 -55 -56s-56 25 -56 56z" fill="currentColor"/>
<path transform="translate(32.3553, 10.0048) scale(0.0040, -0.0040)" d="M0 0c0 31 25 56 56 56s55 -25 55 -56s-24 -56 -55 -56s-56 25 -56 56z" fill="currentColor"/>
<path transform="translate(31.4634, 10.0048) scale(0.0040, -0.0040)" d="M0 0c0 31 25 56 56 56s55 -25 55 -56s-24 -56 -55 -56s-56 25 -56 56z" fill="currentColor"/>
<rect transform="translate(30.9476, 12.5048)" x="-0.0697" y="-4.6667" width="0.1395" height="2.6667" ry="0.0444" fill="currentColor"/>
<g color="rgb(0.0000%, 0.0000%, 50.0000%)">
<rect transform="translate(9.1730, 2.7011)" x="-0.3073" y="-0.1073" width="16.0170" height="0.1073" ry="0.0000" fill="currentColor"/>
<rect transform="translate(9.1730, 0.1073)" x="-0.3073" y="-0.1073" width="16.0170" height="0.1073" ry="0.0000" fill="currentColor"/>
<rect transform="translate(8.8657, 1.9386)" x="0" y="-1.8313" width="0.1073" height="2.4865" ry="0.0000" fill="currentColor"/>
<rect transform="translate(24.7754, 1.9386)" x="0" y="-1.8313" width="0.1073" height="2.4865" ry="0.0000" fill="currentColor"/>
<text transform="translate(9.1730, 1.9386)" font-family="serif" font-size="2.2000" text-anchor="start" fill="currentColor">
<tspan>Voice 1:upper</tspan>
</text>
</g>
<path transform="translate(9.1730, 10.0048) scale(0.0040, -0.0040)" d="M257 -18l-121 79l-67 -43l121 -79zM7 -12c-4 3 -7 7 -7 12s3 9 7 12l148 97c2 2 5 2 8 2s6 0 8 -2l148 -97c4 -3 7 -7 7 -12s-3 -9 -7 -12l-148 -97c-2 -2 -5 -2 -8 -2s-6 0 -8 2z" fill="currentColor"/>
<g color="rgb(62.7451%, 12.5490%, 94.1176%)">
<rect transform="translate(9.1730, 8.4266)" x="-0.3073" y="-0.1073" width="11.8819" height="0.1073" ry="0.0000" fill="currentColor"/>
<rect transform="translate(9.1730, 6.1742)" x="-0.3073" y="-0.1073" width="11.8819" height="0.1073" ry="0.0000" fill="currentColor"/>
<rect transform="translate(8.8657, 8.0813)" x="0" y="-1.9072" width="0.1073" height="2.1451" ry="0.0000" fill="currentColor"/>
<rect transform="translate(20.6403, 8.0813)" x="0" y="-1.9072" width="0.1073" height="2.1451" ry="0.0000" fill="currentColor"/>
<text transform="translate(9.1730, 8.0813)" font-family="serif" font-size="2.2000" text-anchor="start" fill="currentColor">
<tspan>ID: testAll</tspan>
</text>
</g>
<g color="rgb(0.0000%, 0.0000%, 100.0000%)">
<text transform="translate(9.1730, 22.5402)" font-family="serif" font-size="1.7462" text-anchor="start" fill="currentColor">
<tspan>0-0</tspan>
</text>
</g>
<g color="rgb(0.0000%, 0.0000%, 100.0000%)">
<rect transform="translate(9.1730, 25.9378)" x="-0.3073" y="-0.1073" width="15.7515" height="0.1073" ry="0.0000" fill="currentColor"/>
<rect transform="translate(9.1730, 23.6854)" x="-0.3073" y="-0.1073" width="15.7515" height="0.1073" ry="0.0000" fill="currentColor"/>
<rect transform="translate(8.8657, 25.5926)" x="0" y="-1.9072" width="0.1073" height="2.1451" ry="0.0000" fill="currentColor"/>
<rect transform="translate(24.5099, 25.5926)" x="0" y="-1.9072" width="0.1073" height="2.1451" ry="0.0000" fill="currentColor"/>
<text transform="translate(9.1730, 25.5926)" font-family="serif" font-size="2.2000" text-anchor="start" fill="currentColor">
<tspan>Voice 0:lower</tspan>
</text>
</g>
<path transform="translate(9.1036, 19.6433) scale(0.0040, -0.0040)" d="M233 243c-56 0 -102 -108 -102 -174c0 -22 8 -38 30 -38c63 0 97 127 97 179c0 18 -7 33 -25 33zM111 -146c-37 0 -76 5 -114 5s-79 -5 -115 -5c-9 0 -14 8 -14 15c0 19 30 16 48 17c23 1 47 7 54 27l101 296c2 7 5 14 5 20c0 8 -3 14 -11 14c-33 0 -61 -60 -77 -97
c-5 -13 -17 -19 -26 -19c-8 0 -15 5 -15 13c0 3 1 7 2 10c30 68 73 142 133 142c35 0 58 -22 65 -52c29 31 67 52 103 52c69 0 107 -49 107 -114c0 -21 -4 -44 -12 -67c-20 -58 -91 -120 -147 -120c-27 0 -52 6 -73 18c-10 6 -24 3 -27 -6l-27 -80c-1 -3 -2 -6 -2 -9
c0 -21 20 -28 43 -30c9 -1 13 -8 13 -15s-5 -15 -14 -15z" fill="currentColor"/>
<path transform="translate(9.8244, 15.2584) scale(0.0040, -0.0040)" d="M-210 86c-9 2 -15 10 -15 19c0 11 9 20 20 20c2 0 3 -1 5 -1l405 -104c14 0 20 -6 20 -20s-6 -20 -20 -20l-405 -104c-2 0 -3 -1 -5 -1c-11 0 -20 9 -20 20c0 9 6 17 15 19l248 64l140 22l-140 22z" fill="currentColor"/>
<path transform="translate(9.1730, 13.0048) scale(0.0040, -0.0040)" d="M211 111c-49 0 -68 -43 -68 -88c0 -75 57 -134 132 -134c49 0 68 43 68 88c0 75 -57 134 -132 134zM486 0c0 -43 -33 -76 -71 -97c-52 -29 -112 -40 -172 -40s-120 11 -172 40c-38 21 -71 54 -71 97s33 76 71 97c52 29 112 40 172 40s120 -11 172 -40
c38 -21 71 -54 71 -97z" fill="currentColor"/>
<g color="rgb(0.0000%, 0.0000%, 50.0000%)">
<text transform="translate(9.1730, 5.0289)" font-family="serif" font-size="1.7462" text-anchor="start" fill="currentColor">
<tspan>1-0</tspan>
</text>
</g>
<g transform="translate(27.4828, 16.3563)" >
<path transform="scale(0.0040, -0.0040)" d="M233 243c-56 0 -102 -108 -102 -174c0 -22 8 -38 30 -38c63 0 97 127 97 179c0 18 -7 33 -25 33zM111 -146c-37 0 -76 5 -114 5s-79 -5 -115 -5c-9 0 -14 8 -14 15c0 19 30 16 48 17c23 1 47 7 54 27l101 296c2 7 5 14 5 20c0 8 -3 14 -11 14c-33 0 -61 -60 -77 -97
c-5 -13 -17 -19 -26 -19c-8 0 -15 5 -15 13c0 3 1 7 2 10c30 68 73 142 133 142c35 0 58 -22 65 -52c29 31 67 52 103 52c69 0 107 -49 107 -114c0 -21 -4 -44 -12 -67c-20 -58 -91 -120 -147 -120c-27 0 -52 6 -73 18c-10 6 -24 3 -27 -6l-27 -80c-1 -3 -2 -6 -2 -9
c0 -21 20 -28 43 -30c9 -1 13 -8 13 -15s-5 -15 -14 -15z" fill="currentColor"/>

<path transform="translate(1.4416, 0.0000) scale(0.0040, -0.0040)" d="M233 243c-56 0 -102 -108 -102 -174c0 -22 8 -38 30 -38c63 0 97 127 97 179c0 18 -7 33 -25 33zM111 -146c-37 0 -76 5 -114 5s-79 -5 -115 -5c-9 0 -14 8 -14 15c0 19 30 16 48 17c23 1 47 7 54 27l101 296c2 7 5 14 5 20c0 8 -3 14 -11 14c-33 0 -61 -60 -77 -97
c-5 -13 -17 -19 -26 -19c-8 0 -15 5 -15 13c0 3 1 7 2 10c30 68 73 142 133 142c35 0 58 -22 65 -52c29 31 67 52 103 52c69 0 107 -49 107 -114c0 -21 -4 -44 -12 -67c-20 -58 -91 -120 -147 -120c-27 0 -52 6 -73 18c-10 6 -24 3 -27 -6l-27 -80c-1 -3 -2 -6 -2 -9
c0 -21 20 -28 43 -30c9 -1 13 -8 13 -15s-5 -15 -14 -15z" fill="currentColor"/>

<path transform="translate(2.8832, 0.0000) scale(0.0040, -0.0040)" d="M233 243c-56 0 -102 -108 -102 -174c0 -22 8 -38 30 -38c63 0 97 127 97 179c0 18 -7 33 -25 33zM111 -146c-37 0 -76 5 -114 5s-79 -5 -115 -5c-9 0 -14 8 -14 15c0 19 30 16 48 17c23 1 47 7 54 27l101 296c2 7 5 14 5 20c0 8 -3 14 -11 14c-33 0 -61 -60 -77 -97
c-5 -13 -17 -19 -26 -19c-8 0 -15 5 -15 13c0 3 1 7 2 10c30 68 73 142 133 142c35 0 58 -22 65 -52c29 31 67 52 103 52c69 0 107 -49 107 -114c0 -21 -4 -44 -12 -67c-20 -58 -91 -120 -147 -120c-27 0 -52 6 -73 18c-10 6 -24 3 -27 -6l-27 -80c-1 -3 -2 -6 -2 -9
c0 -21 20 -28 43 -30c9 -1 13 -8 13 -15s-5 -15 -14 -15z" fill="currentColor"/>

<path transform="translate(4.3248, 0.0000) scale(0.0040, -0.0040)" d="M233 243c-56 0 -102 -108 -102 -174c0 -22 8 -38 30 -38c63 0 97 127 97 179c0 18 -7 33 -25 33zM111 -146c-37 0 -76 5 -114 5s-79 -5 -115 -5c-9 0 -14 8 -14 15c0 19 30 16 48 17c23 1 47 7 54 27l101 296c2 7 5 14 5 20c0 8 -3 14 -11 14c-33 0 -61 -60 -77 -97
c-5 -13 -17 -19 -26 -19c-8 0 -15 5 -15 13c0 3 1 7 2 10c30 68 73 142 133 142c35 0 58 -22 65 -52c29 31 67 52 103 52c69 0 107 -49 107 -114c0 -21 -4 -44 -12 -67c-20 -58 -91 -120 -147 -120c-27 0 -52 6 -73 18c-10 6 -24 3 -27 -6l-27 -80c-1 -3 -2 -6 -2 -9
c0 -21 20 -28 43 -30c9 -1 13 -8 13 -15s-5 -15 -14 -15z" fill="currentColor"/>
</g>
<g transform="translate(6.5418, 17.4163)" >
<path transform="scale(0.0040, -0.0040)" d="M233 243c-56 0 -102 -108 -102 -174c0 -22 8 -38 30 -38c63 0 97 127 97 179c0 18 -7 33 -25 33zM111 -146c-37 0 -76 5 -114 5s-79 -5 -115 -5c-9 0 -14 8 -14 15c0 19 30 16 48 17c23 1 47 7 54 27l101 296c2 7 5 14 5 20c0 8 -3 14 -11 14c-33 0 -61 -60 -77 -97
c-5 -13 -17 -19 -26 -19c-8 0 -15 5 -15 13c0 3 1 7 2 10c30 68 73 142 133 142c35 0 58 -22 65 -52c29 31 67 52 103 52c69 0 107 -49 107 -114c0 -21 -4 -44 -12 -67c-20 -58 -91 -120 -147 -120c-27 0 -52 6 -73 18c-10 6 -24 3 -27 -6l-27 -80c-1 -3 -2 -6 -2 -9
c0 -21 20 -28 43 -30c9 -1 13 -8 13 -15s-5 -15 -14 -15z" fill="currentColor"/>

<path transform="translate(1.4416, 0.0000) scale(0.0040, -0.0040)" d="M233 243c-56 0 -102 -108 -102 -174c0 -22 8 -38 30 -38c63 0 97 127 97 179c0 18 -7 33 -25 33zM111 -146c-37 0 -76 5 -114 5s-79 -5 -115 -5c-9 0 -14 8 -14 15c0 19 30 16 48 17c23 1 47 7 54 27l101 296c2 7 5 14 5 20c0 8 -3 14 -11 14c-33 0 -61 -60 -77 -97
c-5 -13 -17 -19 -26 -19c-8 0 -15 5 -15 13c0 3 1 7 2 10c30 68 73 142 133 142c35 0 58 -22 65 -52c29 31 67 52 103 52c69 0 107 -49 107 -114c0 -21 -4 -44 -12 -67c-20 -58 -91 -120 -147 -120c-27 0 -52 6 -73 18c-10 6 -24 3 -27 -6l-27 -80c-1 -3 -2 -6 -2 -9
c0 -21 20 -28 43 -30c9 -1 13 -8 13 -15s-5 -15 -14 -15z" fill="currentColor"/>

<path transform="translate(2.8832, 0.0000) scale(0.0040, -0.0040)" d="M233 243c-56 0 -102 -108 -102 -174c0 -22 8 -38 30 -38c63 0 97 127 97 179c0 18 -7 33 -25 33zM111 -146c-37 0 -76 5 -114 5s-79 -5 -115 -5c-9 0 -14 8 -14 15c0 19 30 16 48 17c23 1 47 7 54 27l101 296c2 7 5 14 5 20c0 8 -3 14 -11 14c-33 0 -61 -60 -77 -97
c-5 -13 -17 -19 -26 -19c-8 0 -15 5 -15 13c0 3 1 7 2 10c30 68 73 142 133 142c35 0 58 -22 65 -52c29 31 67 52 103 52c69 0 107 -49 107 -114c0 -21 -4 -44 -12 -67c-20 -58 -91 -120 -147 -120c-27 0 -52 6 -73 18c-10 6 -24 3 -27 -6l-27 -80c-1 -3 -2 -6 -2 -9
c0 -21 20 -28 43 -30c9 -1 13 -8 13 -15s-5 -15 -14 -15z" fill="currentColor"/>

<path transform="translate(4.3248, 0.0000) scale(0.0040, -0.0040)" d="M233 243c-56 0 -102 -108 -102 -174c0 -22 8 -38 30 -38c63 0 97 127 97 179c0 18 -7 33 -25 33zM111 -146c-37 0 -76 5 -114 5s-79 -5 -115 -5c-9 0 -14 8 -14 15c0 19 30 16 48 17c23 1 47 7 54 27l101 296c2 7 5 14 5 20c0 8 -3 14 -11 14c-33 0 -61 -60 -77 -97
c-5 -13 -17 -19 -26 -19c-8 0 -15 5 -15 13c0 3 1 7 2 10c30 68 73 142 133 142c35 0 58 -22 65 -52c29 31 67 52 103 52c69 0 107 -49 107 -114c0 -21 -4 -44 -12 -67c-20 -58 -91 -120 -147 -120c-27 0 -52 6 -73 18c-10 6 -24 3 -27 -6l-27 -80c-1 -3 -2 -6 -2 -9
c0 -21 20 -28 43 -30c9 -1 13 -8 13 -15s-5 -15 -14 -15z" fill="currentColor"/>

<path transform="translate(5.7664, 0.0000) scale(0.0040, -0.0040)" d="M233 243c-56 0 -102 -108 -102 -174c0 -22 8 -38 30 -38c63 0 97 127 97 179c0 18 -7 33 -25 33zM111 -146c-37 0 -76 5 -114 5s-79 -5 -115 -5c-9 0 -14 8 -14 15c0 19 30 16 48 17c23 1 47 7 54 27l101 296c2 7 5 14 5 20c0 8 -3 14 -11 14c-33 0 -61 -60 -77 -97
c-5 -13 -17 -19 -26 -19c-8 0 -15 5 -15 13c0 3 1 7 2 10c30 68 73 142 133 142c35 0 58 -22 65 -52c29 31 67 52 103 52c69 0 107 -49 107 -114c0 -21 -4 -44 -12 -67c-20 -58 -91 -120 -147 -120c-27 0 -52 6 -73 18c-10 6 -24 3 -27 -6l-27 -80c-1 -3 -2 -6 -2 -9
c0 -21 20 -28 43 -30c9 -1 13 -8 13 -15s-5 -15 -14 -15z" fill="currentColor"/>
</g>
<path transform="translate(10.1458, 14.0048) scale(0.0040, -0.0040)" d="M-50 0c0 28 22 50 50 50s50 -22 50 -50s-22 -50 -50 -50s-50 22 -50 50z" fill="currentColor"/>
<path transform="translate(0.8000, 11.5048) scale(0.0040, -0.0040)" d="M558 -125c0 28 22 51 50 51s51 -23 51 -51s-23 -51 -51 -51s-50 23 -50 51zM558 125c0 28 22 51 50 51s51 -23 51 -51s-23 -51 -51 -51s-50 23 -50 51zM231 264c172 0 294 -88 294 -251c0 -263 -262 -416 -515 -523c-3 -3 -7 -4 -10 -4c-7 0 -14 7 -14 14c0 3 1 7 4 10
c201 118 410 265 410 492c0 119 -61 234 -169 234c-72 0 -124 -53 -148 -123c10 4 19 6 29 6c55 0 100 -45 100 -100c0 -58 -44 -106 -100 -106c-60 0 -112 47 -112 106c0 133 101 245 231 245z" fill="currentColor"/>
<path transform="translate(5.0000, 12.5048) scale(0.0040, -0.0040)" d="M203 301c22 15 45 30 61 51c12 15 19 34 27 51c2 4 5 6 9 6c6 0 14 -6 14 -15v-238h74c10 0 16 -8 16 -16s-6 -15 -16 -15h-74v-5c0 -49 29 -95 75 -95c8 0 12 -7 12 -13s-4 -12 -12 -12c-45 0 -90 13 -135 13s-90 -13 -135 -13c-8 0 -12 6 -12 12s4 13 12 13
c46 0 75 46 75 95v5h-163c-24 0 -33 15 -33 24c0 3 1 6 2 7c80 92 134 205 134 327c0 10 6 17 14 17h3c24 -7 48 -13 73 -13s48 6 72 13c2 1 4 1 6 1c9 0 14 -7 14 -13c0 -2 0 -3 -2 -5l-283 -327h163v122c0 9 2 18 9 23z" fill="currentColor"/>
<path transform="translate(5.0000, 14.5534) scale(0.0040, -0.0040)" d="M203 301c22 15 45 30 61 51c12 15 19 34 27 51c2 4 5 6 9 6c6 0 14 -6 14 -15v-238h74c10 0 16 -8 16 -16s-6 -15 -16 -15h-74v-5c0 -49 29 -95 75 -95c8 0 12 -7 12 -13s-4 -12 -12 -12c-45 0 -90 13 -135 13s-90 -13 -135 -13c-8 0 -12 6 -12 12s4 13 12 13
c46 0 75 46 75 95v5h-163c-24 0 -33 15 -33 24c0 3 1 6 2 7c80 92 134 205 134 327c0 10 6 17 14 17h3c24 -7 48 -13 73 -13s48 6 72 13c2 1 4 1 6 1c9 0 14 -7 14 -13c0 -2 0 -3 -2 -5l-283 -327h163v122c0 9 2 18 9 23z" fill="currentColor"/>
<path transform="translate(10.9218, 10.0048) scale(0.0040, -0.0040)" d="M0 0c0 31 25 56 56 56s55 -25 55 -56s-24 -56 -55 -56s-56 25 -56 56z" fill="currentColor"/>
<rect transform="translate(9.2428, 12.5048)" x="-0.0697" y="-2.5000" width="0.1395" height="3.5000" ry="0.0444" fill="currentColor"/>
<g transform="translate(33.5130, 17.0829)" >
<path transform="scale(0.0040, -0.0040)" d="M-44 146c26 76 84 153 152 153c22 0 36 -19 41 -43c23 25 53 43 82 43c23 0 37 -19 43 -44c22 26 51 44 80 44c33 0 59 -35 59 -69c0 -5 -1 -10 -2 -15l-35 -149c0 -2 -1 -4 -1 -5c0 -5 2 -8 7 -8c9 0 27 11 48 31c5 5 10 6 14 6c6 0 12 -4 12 -10c0 -4 -2 -8 -7 -13
c-40 -38 -87 -74 -133 -74c-20 0 -32 13 -32 32c0 4 0 7 1 11l39 165c1 5 2 9 2 14c0 10 -4 18 -14 18c-16 0 -33 -16 -39 -32l-52 -182c-3 -10 -15 -19 -25 -19h-38c-11 0 -17 8 -14 19l52 182c2 6 3 11 3 16c0 9 -4 16 -13 16c-16 0 -35 -15 -41 -32l-62 -182
c-4 -11 -15 -19 -26 -19h-38c-11 0 -16 8 -12 19l62 182c2 5 2 10 2 15c0 10 -3 17 -13 17c-29 0 -54 -53 -66 -87c-4 -12 -15 -18 -24 -18c-7 0 -13 3 -13 11c0 2 0 5 1 7z" fill="currentColor"/>

<path transform="translate(1.7451, 0.0000) scale(0.0040, -0.0040)" d="M252 241l-49 -161c-30 -99 -121 -256 -218 -256c-46 0 -87 30 -87 73c0 39 17 77 52 77c24 0 44 -20 44 -44c0 -30 -38 -24 -38 -54c0 -10 11 -11 23 -11h6c47 0 61 56 73 105l68 271h-47c-11 0 -21 10 -21 21s10 21 21 21h58c32 95 119 189 213 189c46 0 87 -29 87 -72
c0 -39 -17 -78 -52 -78c-24 0 -44 20 -44 44c0 30 38 25 38 55c0 10 -10 10 -22 10h-7c-60 0 -70 -84 -86 -148h53c11 0 21 -10 21 -21s-10 -21 -21 -21h-65z" fill="currentColor"/>
</g>
<rect transform="translate(34.4488, 12.5048)" x="-0.0697" y="-3.3206" width="0.1395" height="3.3206" ry="0.0444" fill="currentColor"/>
<path transform="translate(34.5186, 12.4603) scale(0.0040, -0.0040)" d="M0 0h-18v250h18c96 59 222 149 222 259c0 57 -15 111 -40 162c-3 17 10 29 24 29c8 0 16 -5 21 -13c25 -56 40 -116 40 -178c0 -203 -267 -306 -267 -509z" fill="currentColor"/>
<path transform="translate(47.2065, 11.0048) scale(0.0040, -0.0040)" d="M89 51c-2 -2 -3 -5 -3 -8s1 -5 3 -7l104 -117c2 -2 5 -3 8 -3s7 1 9 3l26 30c2 2 3 5 3 8s-1 5 -3 7l-104 117c-2 2 -5 3 -8 3s-7 -1 -9 -3zM0 0c0 3 1 5 3 7c55 52 106 108 151 169c2 3 6 4 9 4s6 -1 8 -4c45 -61 96 -117 151 -169c2 -2 3 -4 3 -7s-1 -5 -3 -7
c-55 -52 -106 -108 -151 -169c-2 -3 -5 -4 -8 -4s-7 1 -9 4c-45 61 -96 117 -151 169c-2 2 -3 4 -3 7z" fill="currentColor"/>
<g color="rgb(0.0000%, 0.0000%, 50.0000%)">
<text transform="translate(47.2065, 7.1714)" font-family="serif" font-size="1.7462" text-anchor="start" fill="currentColor">
<tspan>1-2</tspan>
</text>
</g>
<g transform="translate(45.6941, 16.3563)" >
<path transform="scale(0.0040, -0.0040)" d="M233 243c-56 0 -102 -108 -102 -174c0 -22 8 -38 30 -38c63 0 97 127 97 179c0 18 -7 33 -25 33zM111 -146c-37 0 -76 5 -114 5s-79 -5 -115 -5c-9 0 -14 8 -14 15c0 19 30 16 48 17c23 1 47 7 54 27l101 296c2 7 5 14 5 20c0 8 -3 14 -11 14c-33 0 -61 -60 -77 -97
c-5 -13 -17 -19 -26 -19c-8 0 -15 5 -15 13c0 3 1 7 2 10c30 68 73 142 133 142c35 0 58 -22 65 -52c29 31 67 52 103 52c69 0 107 -49 107 -114c0 -21 -4 -44 -12 -67c-20 -58 -91 -120 -147 -120c-27 0 -52 6 -73 18c-10 6 -24 3 -27 -6l-27 -80c-1 -3 -2 -6 -2 -9
c0 -21 20 -28 43 -30c9 -1 13 -8 13 -15s-5 -15 -14 -15z" fill="currentColor"/>

<path transform="translate(1.4416, 0.0000) scale(0.0040, -0.0040)" d="M233 243c-56 0 -102 -108 -102 -174c0 -22 8 -38 30 -38c63 0 97 127 97 179c0 18 -7 33 -25 33zM111 -146c-37 0 -76 5 -114 5s-79 -5 -115 -5c-9 0 -14 8 -14 15c0 19 30 16 48 17c23 1 47 7 54 27l101 296c2 7 5 14 5 20c0 8 -3 14 -11 14c-33 0 -61 -60 -77 -97
c-5 -13 -17 -19 -26 -19c-8 0 -15 5 -15 13c0 3 1 7 2 10c30 68 73 142 133 142c35 0 58 -22 65 -52c29 31 67 52 103 52c69 0 107 -49 107 -114c0 -21 -4 -44 -12 -67c-20 -58 -91 -120 -147 -120c-27 0 -52 6 -73 18c-10 6 -24 3 -27 -6l-27 -80c-1 -3 -2 -6 -2 -9
c0 -21 20 -28 43 -30c9 -1 13 -8 13 -15s-5 -15 -14 -15z" fill="currentColor"/>

<path transform="translate(2.8832, 0.0000) scale(0.0040, -0.0040)" d="M233 243c-56 0 -102 -108 -102 -174c0 -22 8 -38 30 -38c63 0 97 127 97 179c0 18 -7 33 -25 33zM111 -146c-37 0 -76 5 -114 5s-79 -5 -115 -5c-9 0 -14 8 -14 15c0 19 30 16 48 17c23 1 47 7 54 27l101 296c2 7 5 14 5 20c0 8 -3 14 -11 14c-33 0 -61 -60 -77 -97
c-5 -13 -17 -19 -26 -19c-8 0 -15 5 -15 13c0 3 1 7 2 10c30 68 73 142 133 142c35 0 58 -22 65 -52c29 31 67 52 103 52c69 0 107 -49 107 -114c0 -21 -4 -44 -12 -67c-20 -58 -91 -120 -147 -120c-27 0 -52 6 -73 18c-10 6 -24 3 -27 -6l-27 -80c-1 -3 -2 -6 -2 -9
c0 -21 20 -28 43 -30c9 -1 13 -8 13 -15s-5 -15 -14 -15z" fill="currentColor"/>
</g>
<path transform="translate(49.8444, 11.0048) scale(0.0040, -0.0040)" d="M0 0c0 31 25 56 56 56s55 -25 55 -56s-24 -56 -55 -56s-56 25 -56 56z" fill="currentColor"/>
<path transform="translate(48.9525, 11.0048) scale(0.0040, -0.0040)" d="M0 0c0 31 25 56 56 56s55 -25 55 -56s-24 -56 -55 -56s-56 25 -56 56z" fill="currentColor"/>
<rect transform="translate(48.4368, 12.5048)" x="-0.0697" y="-4.3333" width="0.1395" height="2.8333" ry="0.0444" fill="currentColor"/>
<g color="rgb(0.0000%, 0.0000%, 100.0000%)">
<text transform="translate(34.3791, 20.1315)" font-family="serif" font-size="1.7462" text-anchor="start" fill="currentColor">
<tspan>0-2</tspan>
</text>
</g>
<path transform="translate(28.5646, 10.5048) scale(0.0040, -0.0040)" d="M29 39l-2 -64v-11c0 -22 2 -43 5 -65c44 38 91 80 91 138c0 33 -13 66 -42 66c-31 0 -51 -31 -52 -64zM-16 -139l-12 593c9 5 18 8 28 8s19 -3 28 -8l-7 -343c25 23 58 36 92 36c51 0 87 -49 87 -103c0 -79 -84 -117 -144 -169c-16 -14 -25 -41 -47 -41
c-14 0 -25 13 -25 27z" fill="currentColor"/>
<path transform="translate(34.3791, 9.0048) scale(0.0040, -0.0040)" d="M215 137c57 0 111 -29 111 -92c0 -71 -54 -120 -101 -148c-35 -21 -74 -34 -114 -34c-57 0 -111 29 -111 92c0 71 54 120 101 148c35 21 74 34 114 34z" fill="currentColor"/>
</svg>
